<?xml version="1.0" encoding="UTF-8"?>
<svg xmlns="http://www.w3.org/2000/svg" xmlns:xlink="http://www.w3.org/1999/xlink" width="32px" height="32px" viewBox="0 0 32 32" version="1.1">
<g id="surface1">
<path style=" stroke:none;fill-rule:nonzero;fill:rgb(0%,0%,0%);fill-opacity:1;" d="M 6.667969 6.667969 L 9.332031 6.667969 L 9.332031 9.332031 L 6.667969 9.332031 Z M 12 12 L 9.332031 12 L 9.332031 9.332031 L 12 9.332031 Z M 14.667969 14.667969 L 12 14.667969 L 12 12 L 14.667969 12 Z M 17.332031 14.667969 L 14.667969 14.667969 L 14.667969 17.332031 L 12 17.332031 L 12 20 L 9.332031 20 L 9.332031 22.667969 L 6.667969 22.667969 L 6.667969 25.332031 L 9.332031 25.332031 L 9.332031 22.667969 L 12 22.667969 L 12 20 L 14.667969 20 L 14.667969 17.332031 L 17.332031 17.332031 L 17.332031 20 L 20 20 L 20 22.667969 L 22.667969 22.667969 L 22.667969 25.332031 L 25.332031 25.332031 L 25.332031 22.667969 L 22.667969 22.667969 L 22.667969 20 L 20 20 L 20 17.332031 L 17.332031 17.332031 Z M 20 12 L 20 14.667969 L 17.332031 14.667969 L 17.332031 12 Z M 22.667969 9.332031 L 22.667969 12 L 20 12 L 20 9.332031 Z M 22.667969 9.332031 L 22.667969 6.667969 L 25.332031 6.667969 L 25.332031 9.332031 Z M 22.667969 9.332031 "/>
</g>
</svg>
