<?xml version="1.0" encoding="UTF-8"?>
<svg xmlns="http://www.w3.org/2000/svg" xmlns:xlink="http://www.w3.org/1999/xlink" width="32px" height="32px" viewBox="0 0 32 32" version="1.1">
<defs>
<filter id="alpha" filterUnits="objectBoundingBox" x="0%" y="0%" width="100%" height="100%">
  <feColorMatrix type="matrix" in="SourceGraphic" values="0 0 0 0 1 0 0 0 0 1 0 0 0 0 1 0 0 0 1 0"/>
</filter>
<mask id="mask0">
  <g filter="url(#alpha)">
<rect x="0" y="0" width="32" height="32" style="fill:rgb(0%,0%,0%);fill-opacity:0.811765;stroke:none;"/>
  </g>
</mask>
<clipPath id="clip1">
  <rect x="0" y="0" width="32" height="32"/>
</clipPath>
<g id="surface5" clip-path="url(#clip1)">
<path style=" stroke:none;fill-rule:evenodd;fill:rgb(33.333333%,21.568627%,55.686275%);fill-opacity:1;" d="M 21.847656 13.847656 C 18.726562 17.816406 15.753906 21.917969 12.921875 26.152344 C 9.640625 22.34375 6.664062 18.242188 4 13.847656 C 4.671875 12.554688 5.699219 11.734375 7.078125 11.382812 C 8.582031 12.164062 10.015625 13.085938 11.382812 14.152344 C 12 14.5625 12.617188 14.5625 13.230469 14.152344 C 16.742188 9.617188 20.84375 5.71875 25.539062 2.460938 C 27.308594 1.925781 28.949219 2.128906 30.460938 3.078125 C 27.210938 6.421875 24.339844 10.011719 21.847656 13.847656 Z M 21.847656 13.847656 "/>
</g>
<mask id="mask1">
  <g filter="url(#alpha)">
<rect x="0" y="0" width="32" height="32" style="fill:rgb(0%,0%,0%);fill-opacity:0.568627;stroke:none;"/>
  </g>
</mask>
<clipPath id="clip2">
  <rect x="0" y="0" width="32" height="32"/>
</clipPath>
<g id="surface8" clip-path="url(#clip2)">
<path style=" stroke:none;fill-rule:evenodd;fill:rgb(33.333333%,21.568627%,55.686275%);fill-opacity:1;" d="M 21.847656 13.847656 C 22.667969 13.847656 23.488281 13.847656 24.308594 13.847656 C 24.308594 18.972656 24.308594 24.101562 24.308594 29.230469 C 16.566406 29.429688 8.875 29.222656 1.230469 28.617188 C 0.820312 21.4375 0.820312 14.257812 1.230469 7.078125 C 6.410156 6.472656 11.640625 6.265625 16.921875 6.460938 C 16.921875 7.078125 16.921875 7.691406 16.921875 8.308594 C 12.410156 8.308594 7.898438 8.308594 3.382812 8.308594 C 3.382812 14.667969 3.382812 21.027344 3.382812 27.382812 C 9.539062 27.382812 15.691406 27.382812 21.847656 27.382812 C 21.847656 22.871094 21.847656 18.359375 21.847656 13.847656 Z M 21.847656 13.847656 "/>
</g>
</defs>
<g id="surface1">
<use xlink:href="#surface5" mask="url(#mask0)"/>
<use xlink:href="#surface8" mask="url(#mask1)"/>
</g>
</svg>
