<?xml version="1.0" encoding="UTF-8"?>
<svg xmlns="http://www.w3.org/2000/svg" xmlns:xlink="http://www.w3.org/1999/xlink" width="32px" height="32px" viewBox="0 0 32 31" version="1.1">
<defs>
<filter id="alpha" filterUnits="objectBoundingBox" x="0%" y="0%" width="100%" height="100%">
  <feColorMatrix type="matrix" in="SourceGraphic" values="0 0 0 0 1 0 0 0 0 1 0 0 0 0 1 0 0 0 1 0"/>
</filter>
<mask id="mask0">
  <g filter="url(#alpha)">
<rect x="0" y="0" width="32" height="31" style="fill:rgb(0%,0%,0%);fill-opacity:0.988235;stroke:none;"/>
  </g>
</mask>
<clipPath id="clip1">
  <rect x="0" y="0" width="32" height="31"/>
</clipPath>
<g id="surface5" clip-path="url(#clip1)">
<path style=" stroke:none;fill-rule:evenodd;fill:rgb(28.235294%,62.352941%,52.54902%);fill-opacity:1;" d="M 26.53125 2.640625 C 27.550781 2.628906 28.574219 2.640625 29.59375 2.667969 C 29.785156 2.71875 29.921875 2.828125 30 3.003906 C 30.050781 3.234375 30.03125 3.457031 29.9375 3.671875 C 27.652344 5.707031 25.566406 7.910156 23.6875 10.28125 C 20.015625 14.921875 16.660156 19.773438 13.625 24.84375 C 13.347656 25.167969 13.027344 25.21875 12.65625 24.992188 C 10.207031 21.300781 7.632812 17.691406 4.9375 14.164062 C 4.8125 13.902344 4.8125 13.640625 4.9375 13.375 C 5.53125 12.800781 6.125 12.222656 6.71875 11.648438 C 6.960938 11.488281 7.210938 11.46875 7.46875 11.585938 C 9.292969 12.832031 11.113281 14.074219 12.9375 15.316406 C 16.167969 11.210938 19.867188 7.542969 24.03125 4.308594 C 24.839844 3.703125 25.671875 3.148438 26.53125 2.640625 Z M 26.53125 2.640625 "/>
</g>
<mask id="mask1">
  <g filter="url(#alpha)">
<rect x="0" y="0" width="32" height="31" style="fill:rgb(0%,0%,0%);fill-opacity:0.964706;stroke:none;"/>
  </g>
</mask>
<clipPath id="clip2">
  <rect x="0" y="0" width="32" height="31"/>
</clipPath>
<g id="surface8" clip-path="url(#clip2)">
<path style=" stroke:none;fill-rule:evenodd;fill:rgb(28.235294%,62.352941%,52.54902%);fill-opacity:1;" d="M 2.40625 6.765625 C 7.011719 6.753906 11.613281 6.765625 16.21875 6.792969 C 16.667969 6.929688 16.824219 7.222656 16.6875 7.675781 C 16.609375 7.851562 16.472656 7.964844 16.28125 8.007812 C 11.90625 8.039062 7.53125 8.046875 3.15625 8.039062 C 3.15625 14.386719 3.15625 20.738281 3.15625 27.085938 C 9.699219 27.085938 16.238281 27.085938 22.78125 27.085938 C 22.769531 22.882812 22.78125 18.675781 22.8125 14.46875 C 23.003906 13.910156 23.367188 13.777344 23.90625 14.074219 C 23.964844 14.160156 24.019531 14.25 24.0625 14.347656 C 24.105469 18.878906 24.105469 23.40625 24.0625 27.9375 C 23.992188 28.066406 23.898438 28.175781 23.78125 28.269531 C 16.640625 28.371094 9.492188 28.390625 2.34375 28.332031 C 2.214844 28.28125 2.097656 28.210938 2 28.117188 C 1.894531 21.125 1.875 14.128906 1.9375 7.128906 C 2.042969 6.941406 2.199219 6.820312 2.40625 6.765625 Z M 2.40625 6.765625 "/>
</g>
</defs>
<g id="surface1">
<use xlink:href="#surface5" mask="url(#mask0)"/>
<use xlink:href="#surface8" mask="url(#mask1)"/>
</g>
</svg>
