<?xml version="1.0" encoding="UTF-8"?>
<svg xmlns="http://www.w3.org/2000/svg" xmlns:xlink="http://www.w3.org/1999/xlink" width="32px" height="27px" viewBox="0 0 32 27" version="1.1">
<g id="surface1">
<path style=" stroke:none;fill-rule:evenodd;fill:rgb(90.196078%,58.431373%,58.431373%);fill-opacity:1;" d="M 14.667969 0.269531 C 16.523438 1.425781 17.765625 3.046875 18.398438 5.128906 C 18.058594 6.550781 18.058594 7.898438 18.398438 9.179688 C 18.109375 9.566406 17.753906 9.835938 17.332031 9.988281 C 17.320312 8.695312 17.320312 7.34375 17.332031 5.941406 C 15.800781 3.460938 13.667969 1.933594 10.933594 1.351562 C 12.144531 0.90625 13.390625 0.546875 14.667969 0.269531 Z M 14.667969 0.269531 "/>
<path style=" stroke:none;fill-rule:evenodd;fill:rgb(95.294118%,78.039216%,78.039216%);fill-opacity:1;" d="M 11.464844 3.511719 C 15.125 4.652344 16.28125 6.992188 14.933594 10.53125 C 13.070312 12.628906 11.027344 13.167969 8.800781 12.148438 C 5.675781 7.78125 6.566406 4.902344 11.464844 3.511719 Z M 11.464844 3.511719 "/>
<path style=" stroke:none;fill-rule:evenodd;fill:rgb(92.54902%,69.803922%,69.803922%);fill-opacity:1;" d="M 9.332031 2.429688 C 9.8125 3.023438 10.257812 3.023438 10.667969 2.429688 C 11.050781 2.722656 11.316406 3.082031 11.464844 3.511719 C 6.566406 4.902344 5.675781 7.78125 8.800781 12.148438 C 8.339844 12.183594 7.804688 12.363281 7.199219 12.691406 C 7.199219 12.511719 7.199219 12.328125 7.199219 12.148438 C 6.621094 11.027344 6.085938 9.855469 5.601562 8.640625 C 5.601562 7.921875 5.601562 7.199219 5.601562 6.480469 C 6.476562 5.871094 7.007812 5.058594 7.199219 4.050781 C 7.605469 3.097656 8.316406 2.558594 9.332031 2.429688 Z M 9.332031 2.429688 "/>
<path style=" stroke:none;fill-rule:evenodd;fill:rgb(96.470588%,82.745098%,82.352941%);fill-opacity:1;" d="M 9.332031 6.210938 C 10.9375 4.710938 12.449219 4.890625 13.867188 6.75 C 14.3125 9.898438 12.976562 11.25 9.867188 10.800781 C 8.03125 9.367188 7.851562 7.835938 9.332031 6.210938 Z M 9.332031 6.210938 "/>
<path style=" stroke:none;fill-rule:evenodd;fill:rgb(92.54902%,68.235294%,68.235294%);fill-opacity:1;" d="M 10.933594 1.351562 C 13.667969 1.933594 15.800781 3.460938 17.332031 5.941406 C 17.320312 7.34375 17.320312 8.695312 17.332031 9.988281 C 17.332031 10.171875 17.332031 10.351562 17.332031 10.53125 C 15.15625 11.605469 13.023438 13.046875 10.933594 14.851562 C 9.667969 14.128906 8.421875 13.40625 7.199219 12.691406 C 7.804688 12.363281 8.339844 12.183594 8.800781 12.148438 C 11.027344 13.167969 13.070312 12.628906 14.933594 10.53125 C 16.28125 6.992188 15.125 4.652344 11.464844 3.511719 C 11.316406 3.082031 11.050781 2.722656 10.667969 2.429688 C 10.257812 3.023438 9.8125 3.023438 9.332031 2.429688 C 9.753906 1.941406 10.289062 1.582031 10.933594 1.351562 Z M 10.933594 1.351562 "/>
<path style=" stroke:none;fill-rule:evenodd;fill:rgb(89.411765%,55.294118%,55.294118%);fill-opacity:1;" d="M 18.398438 5.128906 C 18.820312 5.28125 19.175781 5.550781 19.464844 5.941406 C 19.148438 7.503906 19.148438 8.945312 19.464844 10.261719 C 18.671875 12.414062 17.25 13.941406 15.199219 14.851562 C 15.554688 14.308594 15.910156 13.769531 16.265625 13.230469 C 16.621094 12.328125 16.976562 11.429688 17.332031 10.53125 C 17.332031 10.351562 17.332031 10.171875 17.332031 9.988281 C 17.753906 9.835938 18.109375 9.566406 18.398438 9.179688 C 18.058594 7.898438 18.058594 6.550781 18.398438 5.128906 Z M 18.398438 5.128906 "/>
<path style=" stroke:none;fill-rule:evenodd;fill:rgb(87.843137%,49.019608%,49.019608%);fill-opacity:1;" d="M 14.667969 0.269531 C 15.972656 0.160156 17.21875 0.339844 18.398438 0.808594 C 19.382812 2.261719 20.273438 3.792969 21.066406 5.398438 C 20.769531 5.605469 20.59375 5.875 20.535156 6.210938 C 20.804688 8.105469 20.449219 9.8125 19.464844 11.339844 C 19.644531 11.519531 19.820312 11.699219 20 11.878906 C 19.125 12.488281 18.589844 13.300781 18.398438 14.308594 C 18.398438 14.488281 18.398438 14.671875 18.398438 14.851562 C 17.109375 15.617188 15.777344 16.339844 14.398438 17.011719 C 13.671875 16.597656 13.046875 16.417969 12.535156 16.46875 C 13.472656 16.03125 14.363281 15.492188 15.199219 14.851562 C 17.25 13.941406 18.671875 12.414062 19.464844 10.261719 C 19.148438 8.945312 19.148438 7.503906 19.464844 5.941406 C 19.175781 5.550781 18.820312 5.28125 18.398438 5.128906 C 17.765625 3.046875 16.523438 1.425781 14.667969 0.269531 Z M 14.667969 0.269531 "/>
<path style=" stroke:none;fill-rule:evenodd;fill:rgb(85.098039%,37.254902%,37.254902%);fill-opacity:1;" d="M 18.398438 0.808594 C 20.21875 1.101562 21.820312 1.824219 23.199219 2.96875 C 22.753906 3.15625 22.574219 3.515625 22.667969 4.050781 C 22.960938 6.5 23.136719 8.75 23.199219 10.800781 C 22.816406 11.890625 22.28125 12.878906 21.601562 13.769531 C 20.109375 15.007812 18.6875 16.359375 17.332031 17.820312 C 16.667969 18.21875 16.132812 18.128906 15.734375 17.550781 C 16.183594 16.757812 16.894531 16.308594 17.867188 16.199219 C 18.269531 15.835938 18.445312 15.386719 18.398438 14.851562 C 18.398438 14.671875 18.398438 14.488281 18.398438 14.308594 C 18.730469 14.371094 18.996094 14.550781 19.199219 14.851562 C 19.476562 13.488281 20.1875 12.40625 21.332031 11.609375 C 21.238281 9.828125 21.328125 8.300781 21.601562 7.019531 C 21.308594 6.632812 20.953125 6.363281 20.535156 6.210938 C 20.59375 5.875 20.769531 5.605469 21.066406 5.398438 C 20.273438 3.792969 19.382812 2.261719 18.398438 0.808594 Z M 18.398438 0.808594 "/>
<path style=" stroke:none;fill-rule:evenodd;fill:rgb(83.137255%,30.196078%,30.196078%);fill-opacity:1;" d="M 22.667969 4.050781 C 23.804688 4.699219 24.515625 5.691406 24.800781 7.019531 C 24.800781 7.738281 24.800781 8.460938 24.800781 9.179688 C 24.265625 10.441406 23.734375 11.699219 23.199219 12.960938 C 23.320312 13.175781 23.5 13.265625 23.734375 13.230469 C 22.761719 15.574219 21.25 17.554688 19.199219 19.171875 C 18.988281 19.046875 18.898438 18.867188 18.933594 18.628906 C 20.042969 17.511719 20.929688 16.25 21.601562 14.851562 C 21.601562 14.488281 21.601562 14.128906 21.601562 13.769531 C 22.28125 12.878906 22.816406 11.890625 23.199219 10.800781 C 23.136719 8.75 22.960938 6.5 22.667969 4.050781 Z M 22.667969 4.050781 "/>
<path style=" stroke:none;fill-rule:evenodd;fill:rgb(97.647059%,89.803922%,89.803922%);fill-opacity:1;" d="M 9.332031 6.210938 C 11.675781 5.238281 13.097656 6.046875 13.601562 8.640625 C 12.773438 9.894531 11.796875 10.527344 10.667969 10.53125 C 8.828125 9.371094 8.382812 7.929688 9.332031 6.210938 Z M 9.332031 6.210938 "/>
<path style=" stroke:none;fill-rule:evenodd;fill:rgb(91.764706%,65.098039%,65.098039%);fill-opacity:1;" d="M 7.199219 4.050781 C 7.007812 5.058594 6.476562 5.871094 5.601562 6.480469 C 5.601562 7.199219 5.601562 7.921875 5.601562 8.640625 C 6.085938 9.855469 6.621094 11.027344 7.199219 12.148438 C 5.597656 11.089844 4.527344 9.828125 4 8.371094 C 4.554688 6.523438 5.621094 5.082031 7.199219 4.050781 Z M 7.199219 4.050781 "/>
<path style=" stroke:none;fill-rule:evenodd;fill:rgb(80.392157%,18.431373%,18.431373%);fill-opacity:1;" d="M 26.398438 6.210938 C 26.726562 6.691406 26.902344 7.230469 26.933594 7.828125 C 27.34375 10.886719 26.628906 13.585938 24.800781 15.929688 C 24.089844 16.46875 23.378906 17.011719 22.667969 17.550781 C 23.601562 16.070312 24.492188 14.539062 25.332031 12.960938 C 25.210938 12.746094 25.035156 12.65625 24.800781 12.691406 C 25.101562 11.863281 25.457031 11.054688 25.867188 10.261719 C 25.402344 9.160156 25.222656 7.902344 25.332031 6.480469 C 25.648438 6.230469 26.007812 6.140625 26.398438 6.210938 Z M 26.398438 6.210938 "/>
<path style=" stroke:none;fill-rule:evenodd;fill:rgb(81.960784%,25.098039%,25.098039%);fill-opacity:1;" d="M 23.199219 2.96875 C 24.445312 3.871094 25.511719 4.949219 26.398438 6.210938 C 26.007812 6.140625 25.648438 6.230469 25.332031 6.480469 C 25.222656 7.902344 25.402344 9.160156 25.867188 10.261719 C 25.457031 11.054688 25.101562 11.863281 24.800781 12.691406 C 24.445312 12.871094 24.089844 13.050781 23.734375 13.230469 C 23.5 13.265625 23.320312 13.175781 23.199219 12.960938 C 23.734375 11.699219 24.265625 10.441406 24.800781 9.179688 C 24.800781 8.460938 24.800781 7.738281 24.800781 7.019531 C 24.515625 5.691406 23.804688 4.699219 22.667969 4.050781 C 22.574219 3.515625 22.753906 3.15625 23.199219 2.96875 Z M 23.199219 2.96875 "/>
<path style=" stroke:none;fill-rule:evenodd;fill:rgb(90.588235%,61.176471%,61.176471%);fill-opacity:1;" d="M 17.332031 10.53125 C 16.976562 11.429688 16.621094 12.328125 16.265625 13.230469 C 15.269531 13.421875 14.46875 13.964844 13.867188 14.851562 C 13 14.660156 12.023438 14.660156 10.933594 14.851562 C 13.023438 13.046875 15.15625 11.605469 17.332031 10.53125 Z M 17.332031 10.53125 "/>
<path style=" stroke:none;fill-rule:evenodd;fill:rgb(78.823529%,12.941176%,12.941176%);fill-opacity:1;" d="M 26.933594 7.828125 C 27.664062 8.773438 28.195312 9.855469 28.535156 11.070312 C 27.089844 15.058594 24.957031 18.660156 22.132812 21.871094 C 21.65625 22.199219 21.125 22.378906 20.535156 22.410156 C 20.179688 22.410156 20 22.230469 20 21.871094 C 21.8125 20.035156 23.414062 18.054688 24.800781 15.929688 C 26.628906 13.585938 27.34375 10.886719 26.933594 7.828125 Z M 26.933594 7.828125 "/>
<path style=" stroke:none;fill-rule:evenodd;fill:rgb(87.058824%,43.921569%,43.921569%);fill-opacity:1;" d="M 20.535156 6.210938 C 20.953125 6.363281 21.308594 6.632812 21.601562 7.019531 C 21.328125 8.300781 21.238281 9.828125 21.332031 11.609375 C 20.1875 12.40625 19.476562 13.488281 19.199219 14.851562 C 18.996094 14.550781 18.730469 14.371094 18.398438 14.308594 C 18.589844 13.300781 19.125 12.488281 20 11.878906 C 19.820312 11.699219 19.644531 11.519531 19.464844 11.339844 C 20.449219 9.8125 20.804688 8.105469 20.535156 6.210938 Z M 20.535156 6.210938 "/>
<path style=" stroke:none;fill-rule:evenodd;fill:rgb(88.627451%,51.764706%,51.764706%);fill-opacity:1;" d="M 4 9.449219 C 4.003906 10.269531 4.359375 10.898438 5.066406 11.339844 C 4.890625 11.519531 4.710938 11.699219 4.535156 11.878906 C 5.910156 13.273438 7.0625 14.441406 8 15.390625 C 8.695312 15.707031 9.316406 16.066406 9.867188 16.46875 C 9.136719 16.714844 8.339844 16.894531 7.464844 17.011719 C 5.636719 15.261719 4.125 13.640625 2.933594 12.148438 C 3.210938 11.175781 3.570312 10.273438 4 9.449219 Z M 4 9.449219 "/>
<path style=" stroke:none;fill-rule:evenodd;fill:rgb(81.568627%,24.313725%,24.313725%);fill-opacity:1;" d="M 24.800781 12.691406 C 25.035156 12.65625 25.210938 12.746094 25.332031 12.960938 C 24.492188 14.539062 23.601562 16.070312 22.667969 17.550781 C 22.5 18.21875 22.234375 18.21875 21.867188 17.550781 C 21.6875 18.089844 21.511719 18.628906 21.332031 19.171875 C 21.15625 18.988281 20.976562 18.808594 20.800781 18.628906 C 20.621094 19.171875 20.445312 19.710938 20.265625 20.25 C 20.089844 20.070312 19.910156 19.890625 19.734375 19.710938 C 19.058594 20.847656 18.082031 21.386719 16.800781 21.328125 C 16.425781 20.996094 15.890625 20.996094 15.199219 21.328125 C 16.496094 20.527344 17.742188 19.628906 18.933594 18.628906 C 18.898438 18.867188 18.988281 19.046875 19.199219 19.171875 C 21.25 17.554688 22.761719 15.574219 23.734375 13.230469 C 24.089844 13.050781 24.445312 12.871094 24.800781 12.691406 Z M 24.800781 12.691406 "/>
<path style=" stroke:none;fill-rule:evenodd;fill:rgb(89.803922%,56.862745%,56.862745%);fill-opacity:1;" d="M 4 8.371094 C 4.527344 9.828125 5.597656 11.089844 7.199219 12.148438 C 7.199219 12.328125 7.199219 12.511719 7.199219 12.691406 C 8.421875 13.40625 9.667969 14.128906 10.933594 14.851562 C 12.023438 14.660156 13 14.660156 13.867188 14.851562 C 14.46875 13.964844 15.269531 13.421875 16.265625 13.230469 C 15.910156 13.769531 15.554688 14.308594 15.199219 14.851562 C 14.363281 15.492188 13.472656 16.03125 12.535156 16.46875 C 11.746094 16.160156 10.859375 16.160156 9.867188 16.46875 C 9.316406 16.066406 8.695312 15.707031 8 15.390625 C 7.0625 14.441406 5.910156 13.273438 4.535156 11.878906 C 4.710938 11.699219 4.890625 11.519531 5.066406 11.339844 C 4.359375 10.898438 4.003906 10.269531 4 9.449219 C 4 9.089844 4 8.730469 4 8.371094 Z M 4 8.371094 "/>
<path style=" stroke:none;fill-rule:evenodd;fill:rgb(83.529412%,31.372549%,31.372549%);fill-opacity:1;" d="M 21.601562 14.851562 C 20.929688 16.25 20.042969 17.511719 18.933594 18.628906 C 17.742188 19.628906 16.496094 20.527344 15.199219 21.328125 C 14.238281 20.949219 13.257812 21.128906 12.265625 21.871094 C 10.84375 21.511719 9.421875 21.148438 8 20.789062 C 7.820312 20.96875 7.644531 21.148438 7.464844 21.328125 C 6.910156 20.351562 6.289062 20.171875 5.601562 20.789062 C 4.972656 20.242188 4.617188 19.523438 4.535156 18.628906 C 5.449219 18.699219 6.335938 18.878906 7.199219 19.171875 C 7.558594 19.585938 8.003906 19.945312 8.535156 20.25 C 10.3125 19.53125 12.089844 19.53125 13.867188 20.25 C 14.835938 19.203125 15.902344 18.839844 17.066406 19.171875 C 18.507812 17.621094 20.019531 16.179688 21.601562 14.851562 Z M 21.601562 14.851562 "/>
<path style=" stroke:none;fill-rule:evenodd;fill:rgb(77.254902%,8.627451%,8.235294%);fill-opacity:1;" d="M 28.535156 11.070312 C 28.714844 13.566406 28.359375 15.90625 27.464844 18.089844 C 27.5 17.851562 27.414062 17.671875 27.199219 17.550781 C 25.601562 19.171875 24 20.789062 22.398438 22.410156 C 22.1875 22.285156 22.097656 22.105469 22.132812 21.871094 C 24.957031 18.660156 27.089844 15.058594 28.535156 11.070312 Z M 28.535156 11.070312 "/>
<path style=" stroke:none;fill-rule:evenodd;fill:rgb(80%,17.647059%,17.647059%);fill-opacity:1;" d="M 24.800781 15.929688 C 23.414062 18.054688 21.8125 20.035156 20 21.871094 C 19.523438 22.464844 19.078125 22.464844 18.667969 21.871094 C 18.078125 22.894531 17.367188 23.253906 16.535156 22.949219 C 14.230469 23.894531 12.007812 24.4375 9.867188 24.570312 C 8.664062 24.234375 7.777344 23.511719 7.199219 22.410156 C 9.203125 22.6875 11.246094 22.867188 13.332031 22.949219 C 14.242188 22.269531 15.132812 22.085938 16 22.410156 C 16.382812 22.117188 16.648438 21.757812 16.800781 21.328125 C 18.082031 21.386719 19.058594 20.847656 19.734375 19.710938 C 19.910156 19.890625 20.089844 20.070312 20.265625 20.25 C 20.445312 19.710938 20.621094 19.171875 20.800781 18.628906 C 20.976562 18.808594 21.15625 18.988281 21.332031 19.171875 C 21.511719 18.628906 21.6875 18.089844 21.867188 17.550781 C 22.234375 18.21875 22.5 18.21875 22.667969 17.550781 C 23.378906 17.011719 24.089844 16.46875 24.800781 15.929688 Z M 24.800781 15.929688 "/>
<path style=" stroke:none;fill-rule:evenodd;fill:rgb(87.45098%,46.666667%,46.666667%);fill-opacity:1;" d="M 2.933594 12.148438 C 4.125 13.640625 5.636719 15.261719 7.464844 17.011719 C 8.339844 16.894531 9.136719 16.714844 9.867188 16.46875 C 10.859375 16.160156 11.746094 16.160156 12.535156 16.46875 C 13.046875 16.417969 13.671875 16.597656 14.398438 17.011719 C 15.777344 16.339844 17.109375 15.617188 18.398438 14.851562 C 18.445312 15.386719 18.269531 15.835938 17.867188 16.199219 C 16.894531 16.308594 16.183594 16.757812 15.734375 17.550781 C 15.554688 17.550781 15.378906 17.550781 15.199219 17.550781 C 12.542969 18.082031 9.964844 18.261719 7.464844 18.089844 C 6.449219 16.882812 5.382812 16.160156 4.265625 15.929688 C 4.089844 15.390625 3.910156 14.851562 3.734375 14.308594 C 3.484375 14.632812 3.398438 14.992188 3.464844 15.390625 C 2.953125 14.4375 2.777344 13.355469 2.933594 12.148438 Z M 2.933594 12.148438 "/>
<path style=" stroke:none;fill-rule:evenodd;fill:rgb(85.490196%,38.039216%,38.039216%);fill-opacity:1;" d="M 15.199219 17.550781 C 14.601562 18.332031 13.800781 18.871094 12.800781 19.171875 C 11.097656 18.597656 9.230469 18.597656 7.199219 19.171875 C 6.335938 18.878906 5.449219 18.699219 4.535156 18.628906 C 3.695312 17.765625 3.339844 16.683594 3.464844 15.390625 C 3.398438 14.992188 3.484375 14.632812 3.734375 14.308594 C 3.910156 14.851562 4.089844 15.390625 4.265625 15.929688 C 5.382812 16.160156 6.449219 16.882812 7.464844 18.089844 C 9.964844 18.261719 12.542969 18.082031 15.199219 17.550781 Z M 15.199219 17.550781 "/>
<path style=" stroke:none;fill-rule:evenodd;fill:rgb(84.705882%,36.078431%,36.078431%);fill-opacity:1;" d="M 21.601562 13.769531 C 21.601562 14.128906 21.601562 14.488281 21.601562 14.851562 C 20.019531 16.179688 18.507812 17.621094 17.066406 19.171875 C 15.902344 18.839844 14.835938 19.203125 13.867188 20.25 C 12.089844 19.53125 10.3125 19.53125 8.535156 20.25 C 8.003906 19.945312 7.558594 19.585938 7.199219 19.171875 C 9.230469 18.597656 11.097656 18.597656 12.800781 19.171875 C 13.800781 18.871094 14.601562 18.332031 15.199219 17.550781 C 15.378906 17.550781 15.554688 17.550781 15.734375 17.550781 C 16.132812 18.128906 16.667969 18.21875 17.332031 17.820312 C 18.6875 16.359375 20.109375 15.007812 21.601562 13.769531 Z M 21.601562 13.769531 "/>
<path style=" stroke:none;fill-rule:evenodd;fill:rgb(81.568627%,24.313725%,23.921569%);fill-opacity:1;" d="M 15.199219 21.328125 C 15.890625 20.996094 16.425781 20.996094 16.800781 21.328125 C 16.648438 21.757812 16.382812 22.117188 16 22.410156 C 15.132812 22.085938 14.242188 22.269531 13.332031 22.949219 C 11.246094 22.867188 9.203125 22.6875 7.199219 22.410156 C 6.488281 22.050781 5.957031 21.511719 5.601562 20.789062 C 6.289062 20.171875 6.910156 20.351562 7.464844 21.328125 C 7.644531 21.148438 7.820312 20.96875 8 20.789062 C 9.421875 21.148438 10.84375 21.511719 12.265625 21.871094 C 13.257812 21.128906 14.238281 20.949219 15.199219 21.328125 Z M 15.199219 21.328125 "/>
<path style=" stroke:none;fill-rule:evenodd;fill:rgb(76.862745%,7.45098%,6.666667%);fill-opacity:1;" d="M 27.464844 18.089844 C 24.847656 24.101562 20.222656 26.800781 13.601562 26.191406 C 15.960938 25.03125 18.269531 23.773438 20.535156 22.410156 C 21.125 22.378906 21.65625 22.199219 22.132812 21.871094 C 22.097656 22.105469 22.1875 22.285156 22.398438 22.410156 C 24 20.789062 25.601562 19.171875 27.199219 17.550781 C 27.414062 17.671875 27.5 17.851562 27.464844 18.089844 Z M 27.464844 18.089844 "/>
<path style=" stroke:none;fill-rule:evenodd;fill:rgb(78.431373%,12.941176%,12.54902%);fill-opacity:1;" d="M 20 21.871094 C 20 22.230469 20.179688 22.410156 20.535156 22.410156 C 18.269531 23.773438 15.960938 25.03125 13.601562 26.191406 C 12.3125 25.753906 11.066406 25.214844 9.867188 24.570312 C 12.007812 24.4375 14.230469 23.894531 16.535156 22.949219 C 17.367188 23.253906 18.078125 22.894531 18.667969 21.871094 C 19.078125 22.464844 19.523438 22.464844 20 21.871094 Z M 20 21.871094 "/>
</g>
</svg>
