<?xml version="1.0" standalone="no"?>
<!DOCTYPE svg PUBLIC "-//W3C//DTD SVG 20010904//EN"
 "http://www.w3.org/TR/2001/REC-SVG-20010904/DTD/svg10.dtd">
<svg version="1.0" xmlns="http://www.w3.org/2000/svg"
 width="1024.000000pt" height="946.000000pt" viewBox="0 0 1024.000000 946.000000"
 preserveAspectRatio="xMidYMid meet">

<g transform="translate(0.000000,946.000000) scale(0.100000,-0.100000)"
fill="#000000" stroke="none">
<path d="M0 6569 l0 -2891 131 3 c150 5 148 6 175 -91 8 -30 21 -68 27 -85 7
-19 12 -94 12 -200 l0 -170 32 -50 c102 -161 173 -356 142 -388 -8 -8 -25 -18
-37 -21 -12 -4 -22 -11 -22 -15 0 -3 -13 -15 -30 -24 -18 -11 -41 -40 -56 -72
-17 -34 -40 -63 -63 -78 -87 -57 -179 -107 -198 -107 -34 0 -54 -28 -51 -69 2
-26 9 -39 25 -46 33 -14 46 -60 28 -95 -13 -26 -19 -28 -50 -23 -29 5 -35 3
-36 -13 0 -11 -1 -35 -3 -54 -1 -19 4 -41 11 -48 19 -19 16 -30 -14 -59 -14
-15 -21 -29 -16 -30 6 -2 31 -20 56 -39 38 -29 45 -41 49 -77 5 -46 35 -84
115 -146 26 -20 43 -41 43 -53 0 -31 48 -88 86 -104 43 -18 57 -60 27 -83 -23
-19 -117 -20 -150 -2 -13 6 -34 9 -47 5 -13 -3 -34 -1 -45 6 -31 16 -63 3 -59
-23 3 -23 3 -23 85 -12 42 5 69 -10 39 -21 -9 -3 -16 -13 -16 -20 0 -8 -12
-20 -27 -27 -16 -6 -34 -17 -41 -24 -18 -17 -54 -16 -78 2 -44 33 -44 32 -44
-289 l0 -304 29 -12 c52 -21 44 -61 -9 -47 -20 5 -20 1 -18 -186 l3 -191 29
-1 c34 0 59 -30 37 -44 -8 -5 -11 -16 -8 -26 4 -9 11 -14 17 -10 10 6 43 -23
53 -48 10 -27 -16 -25 -64 5 -25 15 -51 28 -58 28 -7 0 -11 -32 -11 -100 l0
-100 5120 0 5120 0 0 4730 0 4730 -5120 0 -5120 0 0 -2891z m6360 961 c169
-12 483 -39 545 -46 72 -8 265 -49 370 -79 50 -14 140 -38 200 -54 135 -35
195 -54 195 -61 0 -3 12 -7 28 -8 15 -1 75 -22 134 -47 59 -25 129 -52 155
-61 27 -9 104 -45 173 -79 69 -34 178 -88 244 -121 65 -32 123 -63 130 -68 6
-6 49 -31 96 -54 113 -58 388 -242 474 -317 38 -33 92 -79 120 -101 28 -23 90
-79 137 -125 48 -46 100 -95 116 -109 49 -44 139 -163 167 -223 15 -31 31 -57
36 -57 15 0 50 -71 50 -101 0 -16 4 -29 10 -29 11 0 44 -60 33 -61 -5 0 3 -5
17 -11 19 -9 21 -12 9 -15 -10 -2 -20 -19 -23 -38 -4 -19 -13 -38 -20 -42 -7
-5 -24 -30 -37 -58 -13 -27 -37 -61 -52 -77 -44 -42 -28 -54 23 -17 25 18 58
34 75 36 16 2 40 5 52 7 13 1 26 6 30 9 11 11 20 8 27 -9 8 -20 -22 -57 -37
-47 -5 3 -7 2 -4 -4 10 -16 -13 -85 -42 -125 -14 -20 -48 -51 -76 -70 -70 -46
-138 -116 -131 -133 7 -18 50 -20 64 -2 5 6 13 26 16 43 5 23 20 40 55 62 26
17 57 35 67 39 10 3 21 10 24 14 6 9 69 -3 94 -17 19 -11 19 -13 -8 -44 -15
-18 -25 -38 -22 -45 15 -39 -198 -217 -248 -206 -5 1 -5 -6 -2 -16 6 -14 5
-15 -5 -6 -10 10 -16 8 -31 -9 -14 -17 -28 -21 -61 -19 -32 1 -48 -3 -61 -18
-18 -20 -18 -20 23 -27 42 -7 51 -20 29 -43 -11 -10 -8 -10 15 -2 16 6 38 11
51 11 23 0 26 4 59 82 12 27 24 38 47 43 18 4 60 25 94 46 83 52 115 57 163
28 21 -12 40 -24 42 -26 7 -5 -31 -43 -44 -43 -7 0 -16 -8 -21 -18 -12 -23
-159 -158 -220 -201 -27 -19 -70 -45 -97 -58 -37 -19 -51 -33 -63 -64 -10 -23
-30 -47 -50 -60 -19 -11 -34 -22 -34 -25 0 -6 34 8 50 21 8 6 49 33 91 58 42
26 81 58 87 71 11 24 46 47 152 97 90 42 113 46 139 20 12 -12 21 -27 21 -34
0 -18 -65 -87 -82 -87 -8 0 -25 -11 -37 -24 -13 -13 -37 -27 -55 -30 -31 -6
-64 -39 -79 -78 -7 -19 -47 -25 -47 -8 0 6 -7 10 -15 10 -9 0 -15 -9 -15 -25
0 -20 -6 -27 -30 -31 -16 -4 -35 -13 -41 -20 -6 -8 -20 -14 -30 -14 -10 0 -21
-4 -24 -10 -3 -5 1 -10 10 -10 8 0 18 -6 21 -14 4 -10 13 -9 46 7 23 12 57 23
77 27 22 3 36 11 36 20 0 9 14 17 35 20 20 4 41 9 47 13 6 4 14 1 16 -5 3 -8
6 -6 6 5 1 23 48 42 67 26 31 -26 2 -90 -32 -71 -31 17 -72 -6 -43 -23 16 -10
-32 -40 -57 -37 -16 2 -27 -6 -40 -27 -10 -17 -30 -35 -46 -42 -15 -6 -36 -26
-47 -45 -19 -31 -51 -47 -51 -25 0 14 -60 -11 -87 -35 -13 -12 -23 -26 -23
-32 0 -18 -50 -51 -88 -58 -20 -4 -57 -21 -82 -39 -59 -42 -142 -83 -158 -77
-6 2 -12 -3 -12 -12 0 -9 -7 -17 -15 -17 -28 -3 -33 -4 -41 -11 -4 -4 8 -6 27
-5 19 1 36 4 39 7 3 3 30 17 60 33 30 15 75 38 100 51 62 32 118 42 126 21 11
-28 20 -15 16 23 -3 36 -1 40 30 55 18 8 55 21 81 28 61 15 82 -1 79 -58 -3
-46 -18 -62 -62 -68 -21 -2 -47 -18 -74 -44 -26 -25 -58 -44 -86 -51 -25 -7
-53 -16 -62 -21 -10 -5 -25 -9 -33 -9 -9 0 -21 -11 -27 -25 -6 -14 -17 -25
-25 -25 -7 0 -13 -4 -13 -8 0 -5 -26 -17 -57 -27 -32 -11 -65 -25 -73 -32 -21
-16 -109 -56 -135 -60 -11 -1 -29 -5 -40 -7 -11 -2 -32 -5 -47 -5 -17 -1 -28
-7 -28 -15 0 -24 18 -28 50 -11 17 9 40 13 54 9 13 -3 27 -1 31 6 7 11 111 61
123 58 18 -3 123 44 153 70 15 12 62 34 105 48 l79 25 17 -21 c18 -22 18 -22
18 -2 0 37 154 70 167 36 3 -9 0 -20 -8 -25 -11 -7 -11 -9 4 -9 9 0 17 -4 17
-9 0 -5 -12 -8 -27 -6 -57 7 -103 -45 -104 -117 0 -31 -19 -19 -35 22 -14 33
-18 38 -28 26 -6 -8 -17 -16 -25 -18 -8 -2 -22 -10 -32 -18 -41 -35 -49 -40
-66 -43 -30 -6 -73 -30 -73 -40 0 -6 -3 -8 -6 -5 -3 4 0 16 6 28 6 11 10 26 8
32 -2 6 -12 -5 -22 -25 -12 -27 -23 -37 -40 -37 -12 0 -45 -12 -72 -26 -27
-15 -74 -40 -104 -56 -30 -16 -47 -27 -37 -24 47 15 65 17 71 7 5 -7 14 -6 29
3 12 8 57 27 101 42 60 21 82 25 96 16 13 -8 21 -7 33 5 16 16 137 53 174 53
19 0 23 -5 23 -32 0 -25 -3 -29 -10 -18 -8 13 -10 13 -10 -2 0 -21 -36 -43
-45 -28 -17 27 -72 -42 -88 -111 -9 -36 -37 -47 -37 -15 0 25 -29 101 -30 78
0 -7 -4 -11 -8 -8 -5 3 -15 -6 -22 -19 -11 -20 -62 -46 -120 -60 -29 -8 -60
-27 -55 -35 3 -6 -5 -10 -19 -10 -13 0 -26 5 -28 10 -2 7 -14 6 -36 -3 -18 -7
-30 -16 -27 -19 3 -3 -5 -8 -19 -12 -13 -3 -44 -15 -69 -25 -37 -16 -45 -23
-40 -40 7 -26 23 -27 23 -2 0 21 19 31 57 31 14 0 56 9 94 21 82 25 104 21 94
-19 -8 -33 -10 -35 -34 -37 -11 -1 -25 -6 -33 -11 -7 -6 -28 -17 -47 -24 -26
-11 -36 -11 -39 -2 -7 23 -20 12 -26 -23 -5 -26 -14 -39 -34 -47 -24 -10 -25
-12 -7 -16 11 -2 23 -9 28 -16 5 -8 9 -7 16 2 11 17 72 31 136 32 39 0 55 -5
68 -21 10 -11 16 -27 14 -33 -7 -16 -69 -46 -96 -46 -12 0 -21 -5 -21 -10 0
-6 -10 -8 -22 -5 -13 3 -28 2 -33 -2 -18 -14 -37 -83 -30 -112 5 -25 -1 -36
-44 -82 -28 -30 -51 -49 -51 -43 0 6 9 19 20 29 11 10 20 24 20 32 0 7 4 13 9
13 5 0 12 8 15 17 6 15 4 15 -13 -1 -12 -11 -34 -19 -51 -20 -20 -1 -29 -5
-25 -14 3 -7 1 -10 -4 -7 -5 3 -13 1 -16 -5 -5 -8 -12 -7 -23 2 -12 10 -14 10
-8 1 5 -9 -5 -20 -28 -34 -20 -12 -36 -25 -36 -30 0 -30 -67 -68 -76 -44 -4 8
-10 15 -16 15 -5 0 -7 -4 -3 -9 3 -5 0 -13 -7 -17 -13 -8 -25 -9 -160 -15 -69
-4 -79 -10 -54 -34 12 -12 16 -12 26 0 9 11 31 15 75 14 35 -1 69 2 76 6 9 6
11 3 6 -8 -6 -16 -4 -16 24 -2 39 21 134 17 135 -5 0 -19 -30 -50 -49 -50 -8
0 -25 -11 -38 -25 -67 -69 -74 -90 -37 -104 21 -7 20 -8 -10 -13 -18 -3 -35
-1 -38 3 -8 14 -106 -23 -153 -57 -2 -2 -7 -18 -11 -36 l-8 -33 -1 31 -1 32
-35 -18 c-20 -10 -41 -23 -48 -28 -15 -11 -165 -51 -171 -45 -7 7 16 53 26 53
4 0 8 5 8 12 0 6 -9 3 -21 -8 -12 -10 -37 -23 -56 -29 -19 -5 -35 -14 -35 -20
0 -21 -22 -35 -57 -36 l-36 -1 42 -11 c23 -7 45 -15 49 -19 4 -5 18 -8 31 -8
13 0 23 -4 23 -9 0 -14 -52 -49 -86 -57 -16 -3 -50 -17 -75 -31 -35 -19 -57
-23 -98 -21 l-53 3 31 39 c17 21 31 44 31 50 0 6 -5 4 -11 -4 -7 -10 -9 -11
-7 -2 2 8 8 14 13 14 6 0 23 11 38 24 16 13 32 24 36 24 14 0 52 38 44 43 -4
2 -20 7 -35 11 -19 4 -28 13 -28 25 0 31 11 51 29 52 10 0 11 2 4 6 -10 3 -9
11 2 33 15 30 24 34 89 46 l38 7 -17 -29 -17 -29 20 25 c11 13 19 27 17 30 -2
3 19 18 46 33 27 16 49 30 49 32 0 2 -33 -11 -72 -29 -61 -28 -188 -55 -188
-41 0 2 10 13 22 25 12 11 19 23 15 26 -9 10 41 34 72 36 43 1 61 9 61 24 0
15 -16 19 -22 5 -1 -4 -21 -11 -43 -15 -38 -7 -39 -7 -20 8 16 13 17 15 3 10
-19 -7 -25 10 -8 21 6 4 7 11 4 17 -4 6 -3 8 3 5 6 -4 20 4 32 17 18 19 21 28
12 44 -8 15 -6 23 12 39 12 11 32 26 44 32 13 7 20 17 17 25 -3 8 -1 24 5 35
8 14 8 22 0 27 -6 3 -7 9 -3 13 5 3 22 32 39 63 16 31 33 54 37 52 8 -5 12 11
9 30 -4 16 30 96 40 96 5 0 9 9 9 20 0 11 3 20 8 20 4 0 12 10 17 23 6 12 18
21 28 21 20 -2 23 16 5 34 -9 9 -6 18 15 40 15 15 27 33 27 40 0 6 9 17 20 24
11 7 20 18 20 24 0 23 42 64 65 64 31 0 40 16 25 45 -13 24 -12 26 30 72 26
29 39 60 28 71 -17 17 22 90 55 101 26 10 40 51 17 51 -23 0 -7 32 25 51 36
22 43 45 24 80 -18 35 -2 59 40 59 30 0 40 5 49 24 9 20 7 27 -9 42 -10 9 -19
25 -19 35 0 12 -5 16 -15 13 -22 -9 -18 2 10 30 17 17 25 36 25 61 0 36 -7 40
-60 37 -25 -1 -50 18 -50 39 0 15 5 19 16 15 9 -3 22 -6 30 -6 9 0 12 -4 9
-10 -3 -6 2 -10 12 -10 11 0 24 -5 29 -10 7 -7 19 -4 37 10 15 12 27 18 27 13
0 -4 4 -2 9 6 7 11 10 9 16 -8 3 -11 13 -21 22 -21 8 0 13 3 11 8 -27 54 -38
71 -67 98 -43 39 -37 61 18 70 39 6 40 8 38 43 -4 51 -13 61 -48 54 -35 -7
-69 18 -69 52 0 36 16 43 71 32 35 -7 53 -7 61 1 8 8 19 3 38 -19 16 -16 38
-29 50 -29 19 0 17 6 -23 58 -25 31 -57 68 -71 81 -14 14 -26 31 -26 39 0 12
-3 12 -15 2 -12 -10 -15 -7 -21 14 -11 47 23 64 50 24 12 -17 18 -20 28 -10 7
7 20 12 30 12 14 0 16 6 11 33 -8 43 -31 87 -45 87 -8 0 -6 6 4 17 14 13 20
14 32 3 13 -10 19 -10 32 0 26 23 -1 135 -30 124 -17 -7 -56 33 -56 58 0 10
-4 18 -10 18 -17 0 -10 14 15 33 24 17 26 17 47 -3 29 -27 68 -27 68 0 0 15
-7 20 -25 20 -14 0 -25 4 -25 9 0 5 -16 19 -36 32 l-36 22 7 71 c4 45 3 66 -3
58 -7 -11 -11 -8 -16 12 -4 17 -13 26 -27 26 -13 0 -24 10 -31 30 -6 19 -19
32 -34 36 -13 3 -22 10 -19 14 3 4 -2 13 -10 20 -22 18 -3 36 48 44 36 6 39 9
23 18 -10 6 -35 8 -56 5 -20 -2 -44 0 -53 5 -22 12 -47 61 -47 92 0 32 -10 56
-22 56 -14 0 -57 49 -69 78 -5 13 -18 26 -30 29 -12 4 -18 11 -15 20 3 8 -3
17 -17 22 -31 12 -53 41 -60 79 -5 24 -3 34 8 38 8 4 15 10 15 15 0 13 -67 11
-75 -1 -5 -8 -11 -8 -19 -1 -7 6 -16 8 -19 4 -9 -8 -57 36 -57 53 0 7 -5 14
-12 16 -14 5 30 58 49 58 7 0 13 5 13 11 0 7 -14 8 -40 4 -27 -5 -54 -1 -82
10 -37 14 -43 20 -44 46 -1 27 -40 79 -59 79 -14 0 -54 38 -47 44 3 4 2 10 -3
14 -6 4 -15 16 -21 27 -6 11 -21 21 -33 23 -11 2 -26 12 -31 23 -6 10 -19 19
-28 19 -13 0 -18 8 -17 27 0 24 -5 28 -45 35 -25 5 -60 6 -78 3 -34 -6 -138
20 -217 55 -22 9 -57 20 -77 24 -72 13 -222 96 -199 110 17 11 13 26 -6 27
-16 1 -16 2 -2 6 9 2 19 16 22 31 5 28 -9 45 -30 37 -6 -2 -26 0 -45 5 -18 5
-60 11 -93 14 -33 2 -80 12 -104 20 -24 9 -47 14 -52 11 -19 -12 -58 8 -69 35
-11 26 -62 56 -79 46 -4 -3 -38 2 -76 10 -39 8 -102 21 -142 29 -40 8 -81 19
-93 25 -11 6 -20 9 -20 6 0 -3 -15 0 -32 5 -18 6 -46 12 -63 14 -120 14 -235
27 -260 30 -16 1 -39 6 -50 10 -16 5 -17 5 -5 -4 12 -8 5 -11 -28 -11 -24 0
-41 4 -37 9 3 6 -6 7 -22 2 -16 -4 -89 -9 -163 -11 -74 -2 -157 -4 -185 -5
-27 -1 -59 -3 -70 -4 -19 -2 -19 -3 1 -11 47 -19 203 -39 253 -33 115 13 406
-63 611 -160 14 -6 39 -22 56 -34 17 -13 36 -23 42 -23 6 0 12 -3 14 -7 2 -5
21 -21 44 -36 23 -15 68 -54 102 -86 33 -32 73 -66 88 -76 14 -9 31 -30 37
-46 6 -16 18 -31 27 -34 21 -7 61 -68 64 -98 3 -22 48 -92 65 -99 4 -2 17 -19
29 -39 l22 -36 -28 -29 c-15 -16 -40 -36 -55 -44 -16 -8 -24 -16 -18 -18 8 -3
9 -8 2 -16 -8 -9 21 -27 114 -71 73 -34 136 -71 153 -89 36 -40 74 -94 88
-126 6 -14 21 -47 33 -74 12 -26 19 -51 17 -54 -7 -6 -79 29 -84 41 -2 4 -17
7 -32 7 -19 0 -33 7 -40 20 -13 24 -36 26 -49 3 -8 -15 -13 -15 -36 -5 -14 7
-52 12 -85 12 -32 0 -62 5 -65 10 -8 13 -71 13 -95 0 -26 -14 -49 -3 -45 22 4
18 0 19 -43 15 -80 -8 -140 -28 -145 -49 -4 -13 -14 -18 -36 -18 -18 0 -57 -8
-89 -18 -61 -20 -200 -45 -223 -40 -9 2 -13 -4 -11 -18 2 -17 -9 -24 -70 -46
-114 -42 -131 -47 -160 -53 -16 -3 -28 -10 -28 -15 0 -10 69 -5 173 12 58 10
70 16 84 39 20 33 26 34 200 50 128 11 133 11 178 -11 37 -18 58 -21 99 -17
43 4 58 1 91 -19 43 -25 38 -27 -38 -15 -27 4 -66 5 -88 1 -31 -6 -43 -3 -62
12 -19 17 -30 19 -77 12 -30 -4 -68 -7 -85 -6 -40 2 -145 -20 -145 -30 0 -4
-9 -8 -19 -8 -11 0 -23 -5 -26 -10 -4 -6 -11 -8 -16 -5 -14 9 -11 -8 7 -34 14
-19 23 -22 58 -18 22 3 59 10 81 16 22 6 75 11 118 11 64 0 80 -3 97 -20 27
-27 26 -43 -2 -34 -37 11 -165 10 -226 -2 -64 -13 -112 -8 -112 12 0 17 -39
18 -90 4 -19 -5 -63 -12 -98 -15 -50 -4 -64 -2 -69 10 -4 12 -8 13 -19 4 -14
-12 -147 -7 -204 7 -20 6 -23 4 -13 -6 7 -8 33 -14 57 -16 24 -1 59 -11 78
-22 26 -16 44 -19 84 -15 51 5 147 -17 159 -38 4 -5 -1 -6 -9 -3 -16 6 -165
-33 -181 -47 -5 -5 -13 -9 -17 -9 -12 0 -9 45 4 58 8 8 9 12 1 12 -6 0 -14 -6
-16 -12 -4 -10 -8 -9 -16 2 -6 8 -11 11 -11 5 0 -5 -4 -4 -9 4 -6 10 -17 11
-37 5 -32 -9 -43 -11 -61 -13 -7 0 -13 -8 -13 -17 0 -11 6 -15 20 -11 12 3 18
1 14 -5 -3 -5 -15 -7 -26 -5 -11 3 -32 1 -46 -4 -23 -9 -24 -8 -12 8 7 10 -1
3 -17 -14 -27 -30 -63 -47 -48 -23 13 20 -24 9 -39 -12 -15 -21 -16 -21 -35
-4 -13 12 -21 14 -26 6 -4 -6 -13 -9 -21 -6 -8 3 -14 1 -14 -4 0 -5 -6 -7 -13
-4 -8 3 -20 -2 -27 -11 -7 -8 -20 -15 -29 -14 -11 0 -9 3 7 9 27 12 29 24 2
17 -23 -6 -24 -3 -9 26 15 30 60 66 81 67 20 0 68 21 68 29 0 3 -16 6 -35 6
-19 0 -35 -3 -35 -7 0 -3 -20 -18 -45 -32 -27 -16 -45 -34 -45 -45 0 -23 -25
-44 -78 -64 -59 -23 -99 -22 -112 4 -9 16 -8 24 5 39 15 16 15 18 0 24 -9 3
-21 3 -26 0 -5 -3 -25 4 -45 16 -36 23 -56 23 -29 0 18 -15 20 -31 2 -24 -13
5 -57 -30 -57 -46 0 -5 -10 -10 -22 -12 -13 -2 -23 -8 -23 -15 0 -6 -4 -15 -9
-20 -5 -5 -6 -3 -2 5 11 19 -8 14 -38 -9 -15 -12 -29 -19 -32 -16 -3 3 11 17
33 30 46 30 98 84 70 74 -15 -6 -17 -3 -12 13 5 15 2 20 -10 20 -11 0 -15 -5
-12 -14 3 -8 -1 -17 -9 -20 -8 -3 -12 -2 -9 3 9 15 -29 19 -46 4 -13 -11 -19
-8 -38 18 -13 17 -21 32 -19 34 2 2 24 -1 48 -6 59 -14 136 -3 163 22 l21 19
-32 -11 c-25 -8 -36 -8 -47 1 -11 9 -15 9 -15 1 0 -16 -102 -10 -107 5 -8 23
32 54 75 58 23 2 42 0 42 -5 0 -6 9 -5 20 1 12 6 31 8 43 5 16 -5 18 -4 8 3
-8 6 -11 17 -7 27 6 16 5 16 -19 1 -17 -11 -37 -15 -64 -11 -30 3 -50 -1 -83
-20 -24 -14 -54 -25 -67 -25 -18 0 -22 -4 -16 -17 4 -10 10 -27 13 -38 5 -19
5 -19 -15 -2 -15 13 -23 15 -28 7 -5 -8 -11 -8 -19 -1 -7 6 -16 8 -19 4 -4 -3
-7 -1 -7 7 0 21 88 160 121 190 17 15 36 37 43 48 26 47 188 222 279 303 86
76 110 92 195 125 l97 39 181 -1 181 0 23 35 c15 22 25 54 26 81 2 25 3 49 3
53 1 5 6 5 11 2 18 -11 11 71 -7 92 -33 38 -78 96 -86 109 -4 8 -12 14 -17 14
-6 0 -32 23 -58 50 -40 41 -54 50 -83 50 -21 0 -44 8 -57 20 -12 11 -25 20
-29 20 -4 0 -20 6 -35 14 -17 9 -51 13 -95 11 -47 -1 -81 3 -108 15 -22 9 -46
15 -53 12 -6 -2 -12 1 -12 6 0 5 -23 9 -51 8 -28 -1 -53 2 -55 6 -8 12 -43 10
-77 -6 -49 -22 -61 -24 -74 -10 -19 19 -117 28 -154 15 -18 -6 -55 -11 -82
-11 -38 0 -56 -5 -74 -22 -21 -20 -27 -20 -87 -10 -73 12 -106 3 -122 -33 -6
-11 -15 -19 -22 -18 -7 2 -12 -2 -12 -7 0 -6 -28 -10 -65 -10 -46 0 -70 -5
-84 -17 -11 -9 -18 -20 -15 -25 8 -13 -44 -28 -101 -28 -45 0 -55 -4 -69 -24
-9 -14 -12 -27 -7 -30 22 -14 -13 -70 -44 -71 -5 0 -16 -4 -22 -8 -7 -5 -37
-10 -65 -12 -32 -2 -54 -9 -57 -17 -2 -7 -19 -27 -38 -45 -18 -17 -33 -40 -33
-50 0 -10 -4 -23 -8 -29 -12 -19 -50 -34 -67 -28 -10 4 -24 -2 -36 -14 -19
-21 -19 -21 2 -41 l21 -19 -32 -17 c-25 -13 -31 -22 -28 -40 4 -17 -2 -27 -21
-37 -14 -7 -30 -19 -34 -25 -4 -7 -17 -13 -27 -13 -11 0 -20 -6 -20 -14 0 -8
-7 -16 -15 -20 -8 -3 -15 -13 -15 -23 0 -9 -10 -27 -21 -40 -15 -15 -19 -26
-12 -35 10 -14 10 -41 -1 -75 -5 -16 2 -29 31 -58 21 -20 38 -44 38 -53 0 -10
7 -16 15 -14 10 1 9 -3 -5 -14 -14 -11 -15 -15 -5 -13 8 1 27 -3 42 -9 19 -8
25 -16 21 -31 -4 -16 4 -24 44 -41 103 -47 114 -53 134 -81 25 -36 22 -60 -12
-76 -22 -11 -35 -8 -103 20 -73 30 -79 31 -90 14 -8 -10 -26 -17 -44 -17 -17
0 -33 -4 -36 -8 -8 -14 51 -62 77 -62 31 0 89 -52 81 -73 -3 -9 -17 -23 -30
-32 -13 -8 -30 -30 -38 -48 -26 -58 -44 -73 -66 -59 -45 28 -50 19 -46 -82 2
-52 7 -99 10 -105 8 -12 -49 -72 -60 -63 -4 4 -3 0 2 -8 4 -8 9 -21 10 -28 2
-8 4 -16 7 -18 14 -15 380 -54 510 -55 51 -1 102 -5 115 -10 13 -5 65 -11 115
-14 51 -3 126 -7 167 -10 l75 -6 81 90 c64 71 84 101 94 138 14 57 39 113 51
113 4 0 6 -15 5 -32 -2 -18 -1 -22 1 -9 3 13 13 26 24 28 10 3 19 10 19 16 0
6 2 8 5 5 10 -9 -7 -38 -18 -31 -6 3 -7 1 -3 -5 10 -17 18 -15 48 13 27 25 88
35 88 16 0 -6 12 -4 27 4 15 8 31 11 36 8 5 -3 29 0 53 7 52 15 109 3 138 -29
16 -17 15 -19 -28 -31 -25 -7 -56 -10 -70 -6 -16 4 -28 1 -33 -8 -4 -7 -26
-17 -49 -20 -39 -7 -41 -6 -52 26 l-11 33 5 -32 c5 -31 4 -33 -75 -72 -44 -22
-82 -45 -86 -51 -11 -18 8 -11 74 29 36 22 80 42 96 45 32 6 210 23 258 25 16
0 35 7 43 15 21 21 82 39 109 32 26 -7 54 -42 60 -73 1 -10 -4 -29 -12 -42 -8
-13 -11 -26 -7 -30 5 -3 9 -17 9 -31 0 -20 -6 -26 -29 -28 -16 -2 -33 1 -39 7
-14 14 -30 14 -22 1 6 -9 -25 -15 -50 -10 -5 1 -7 -2 -3 -5 4 -4 -3 -15 -15
-25 -16 -13 -25 -15 -38 -7 -15 9 -15 13 4 46 12 20 29 47 39 60 12 16 15 28
8 36 -5 6 -7 15 -3 18 3 4 2 7 -4 7 -10 0 -20 -22 -39 -85 l-9 -30 -110 -7
c-61 -5 -146 -12 -190 -16 -46 -5 -83 -5 -86 0 -3 5 -11 2 -18 -5 -9 -12 -8
-18 5 -32 16 -15 14 -19 -22 -57 -22 -22 -51 -48 -66 -59 l-27 -20 -39 25
c-22 14 -43 22 -46 19 -3 -4 -6 0 -6 7 0 8 -11 -1 -25 -20 -28 -38 -26 -55 3
-21 17 22 18 22 54 5 21 -9 35 -21 32 -25 -2 -4 10 -4 27 1 34 10 99 50 99 62
0 4 10 17 23 30 12 13 21 30 19 39 -4 21 10 26 111 40 54 8 109 9 162 4 44 -5
69 -10 55 -13 -14 -2 -45 -12 -70 -24 -42 -19 -43 -21 -22 -29 12 -5 22 -11
22 -14 0 -4 -5 -3 -10 0 -6 4 -9 1 -8 -5 5 -22 -47 -50 -102 -56 -73 -7 -140
-24 -140 -36 0 -5 -4 -7 -9 -3 -5 3 -12 1 -16 -4 -6 -11 28 -6 103 15 49 15
55 14 72 -1 17 -15 22 -12 89 54 75 73 106 90 138 73 14 -8 28 -5 58 14 41 25
80 30 104 15 11 -7 9 -10 -7 -15 -12 -4 -32 -20 -46 -36 -16 -19 -26 -25 -29
-17 -3 7 -6 5 -6 -5 -1 -10 -18 -29 -38 -43 -21 -14 -55 -36 -75 -50 -21 -14
-39 -25 -40 -24 -2 0 -16 -4 -31 -10 -16 -6 -47 -14 -69 -17 -34 -6 -40 -4
-33 7 4 8 -2 4 -14 -8 -12 -13 -31 -24 -41 -25 -11 -1 -32 -3 -47 -4 -153 -15
-163 -12 -120 34 20 22 20 24 2 14 -11 -6 -33 -24 -49 -41 -28 -29 -28 -31 -9
-31 12 0 34 -5 49 -10 l27 -11 -28 -29 c-15 -16 -40 -34 -56 -40 -16 -7 -29
-18 -29 -24 0 -6 -7 -2 -15 8 -8 10 -12 23 -9 27 3 5 -6 14 -20 20 -24 11 -24
12 -8 35 9 13 25 24 34 24 22 0 35 20 13 20 -21 0 -85 33 -111 58 -16 15 -25
17 -39 9 -15 -8 -17 -7 -12 7 4 10 3 15 -3 11 -6 -3 -10 0 -10 7 0 9 -3 9 -10
-2 -6 -10 -5 -17 6 -23 12 -7 5 -18 -36 -58 -28 -27 -55 -49 -60 -49 -6 0 -10
-5 -10 -11 0 -6 -6 -17 -14 -24 -10 -11 -16 -11 -25 -2 -10 9 -12 9 -9 -3 2
-11 -8 -16 -44 -18 -39 -3 -47 0 -42 12 3 8 18 18 34 21 15 3 36 15 46 26 9
10 21 19 27 19 5 0 28 14 51 32 22 17 43 33 45 35 2 2 2 6 -2 9 -3 3 -25 -6
-50 -20 -24 -14 -50 -26 -57 -26 -7 0 -18 -7 -24 -15 -7 -10 -37 -17 -86 -21
-41 -3 -78 -8 -83 -11 -17 -10 -100 10 -104 26 -6 18 -107 86 -153 102 -54 19
-44 2 17 -28 60 -30 77 -55 46 -71 -24 -13 -114 2 -164 26 -37 18 -96 17 -164
-3 -24 -7 -90 33 -90 55 0 8 11 17 25 20 22 6 20 8 -24 23 -65 22 -74 21 -42
-4 14 -11 26 -24 26 -28 0 -4 -23 -18 -50 -31 -46 -21 -55 -22 -101 -12 -80
19 -99 16 -99 -13 0 -23 -3 -25 -47 -24 -73 1 -86 7 -79 34 7 26 2 29 -69 41
-22 4 -51 11 -64 16 -19 7 -21 11 -11 23 11 13 10 18 -6 30 -10 7 -34 16 -51
20 -38 7 -43 20 -12 28 28 8 15 27 -19 27 -42 0 -72 11 -72 26 0 16 -45 19
-55 4 -3 -5 7 -16 22 -24 16 -7 36 -23 46 -34 16 -17 16 -23 5 -41 -7 -12 -20
-21 -30 -21 -27 0 -106 53 -110 73 -3 18 -71 51 -82 40 -12 -13 -25 9 -16 27
15 29 3 45 -34 45 -39 0 -57 -11 -32 -21 9 -4 23 -19 32 -35 14 -27 13 -29 -9
-34 -35 -9 -77 11 -77 36 0 11 -13 34 -30 49 -21 19 -30 37 -30 59 0 26 -4 31
-25 31 -14 0 -25 -4 -25 -10 0 -16 -57 -12 -74 6 -9 8 -16 22 -16 31 0 9 -7
21 -15 27 -8 6 -18 25 -21 43 -6 29 -3 33 29 46 35 15 35 15 26 60 -4 24 -17
61 -28 81 -11 20 -16 36 -10 36 5 0 9 7 7 16 -2 10 3 19 10 21 6 3 12 -2 12
-11 0 -10 6 -13 15 -10 8 4 15 1 15 -5 0 -6 4 -11 8 -11 5 0 7 21 6 48 -9 121
-8 137 1 137 6 0 16 4 23 8 8 6 12 2 12 -13 0 -12 5 -18 10 -15 5 3 10 -3 10
-14 0 -28 14 -26 30 4 14 25 14 24 -19 89 -2 5 1 6 7 2 8 -5 12 2 12 18 0 14
-2 26 -4 26 -11 0 -63 -55 -87 -92 -15 -22 -29 -39 -33 -39 -19 3 -25 -2 -36
-28 -6 -16 -29 -45 -49 -64 -21 -20 -53 -66 -72 -104 -19 -37 -37 -71 -41 -74
-14 -10 -80 -183 -103 -269 -12 -47 -30 -139 -40 -205 -9 -66 -22 -132 -27
-146 -10 -28 -45 -49 -80 -49 -14 0 -18 -5 -14 -16 22 -57 20 -67 -18 -99 -37
-31 -38 -33 -27 -71 17 -59 13 -96 -13 -148 -17 -35 -23 -58 -19 -85 5 -36 3
-39 -26 -49 -36 -13 -36 -13 -15 -53 10 -19 13 -41 9 -60 -4 -17 -2 -36 4 -43
14 -17 50 -125 51 -151 0 -11 14 -36 30 -55 17 -19 56 -68 88 -109 93 -119
147 -174 209 -211 32 -19 67 -43 78 -53 11 -10 31 -20 45 -24 14 -3 70 -18
125 -34 106 -29 301 -66 425 -78 119 -13 371 13 525 54 28 7 93 16 146 19 52
3 120 12 150 20 30 7 98 21 152 31 53 9 97 20 97 25 0 4 23 10 52 13 48 6 102
20 267 68 77 23 93 18 21 -6 -28 -9 -50 -19 -47 -21 4 -4 114 27 161 45 25 10
28 9 22 -6 -5 -14 -2 -13 11 4 10 12 37 26 61 33 23 6 42 16 42 21 0 6 7 9 15
6 8 -4 17 -2 21 4 3 6 11 8 17 6 7 -2 25 0 40 4 23 7 27 6 18 -5 -9 -11 -2
-11 43 -1 29 7 69 17 87 23 29 10 72 16 237 37 17 2 32 0 32 -5 0 -5 8 -7 18
-5 9 3 -2 -4 -24 -15 -23 -11 -102 -33 -175 -49 -74 -16 -125 -30 -114 -30 11
0 38 3 60 8 22 5 72 12 110 15 l70 6 -35 -19 c-20 -11 -65 -22 -105 -25 -38
-4 -92 -9 -120 -13 l-50 -5 20 23 c11 13 13 18 5 12 -8 -6 -40 -21 -70 -33
-30 -12 -140 -64 -244 -116 -153 -76 -198 -94 -233 -94 -65 0 -59 5 99 79 37
17 72 31 78 31 5 0 10 4 10 9 0 5 9 13 21 16 11 4 18 9 15 12 -7 7 -67 -17
-84 -34 -7 -7 -20 -13 -28 -13 -15 0 -107 -42 -360 -166 -71 -35 -134 -64
-138 -64 -8 0 -82 -35 -106 -50 -8 -5 -68 -34 -132 -65 -65 -30 -118 -57 -118
-60 0 -2 8 -2 18 2 46 16 -2 -8 -71 -37 -43 -18 -91 -43 -107 -57 -38 -32
-153 -83 -198 -88 -69 -8 -155 -24 -161 -31 -3 -4 9 -4 27 -1 39 8 42 -3 4
-21 -30 -15 -214 -35 -237 -26 -39 15 32 57 115 69 24 3 51 12 60 19 17 15
215 96 234 96 7 0 33 16 58 35 29 23 72 43 119 56 41 11 89 32 107 46 18 14
105 61 194 105 88 44 158 82 155 85 -3 3 -68 -22 -144 -55 -187 -82 -530 -226
-575 -242 -20 -8 -34 -18 -31 -24 4 -5 0 -7 -10 -3 -9 3 -30 -1 -47 -9 -17 -9
-38 -13 -48 -9 -9 3 -13 3 -9 -1 8 -8 -41 -32 -144 -69 -54 -19 -75 -23 -85
-14 -7 6 -19 7 -26 3 -7 -5 -23 -7 -35 -6 -11 2 -24 -2 -28 -7 -3 -6 -15 -11
-26 -11 -25 0 -24 -15 3 -34 28 -20 20 -28 -16 -18 -26 7 -151 -12 -217 -33
-22 -7 -23 -6 -10 9 25 30 102 69 153 77 48 8 106 32 198 83 48 27 189 59 218
50 11 -4 13 -3 5 3 -18 13 90 80 166 102 36 11 92 24 124 30 38 7 64 18 75 31
10 13 68 38 147 64 149 50 230 84 222 92 -3 3 -14 1 -24 -4 -10 -6 -61 -25
-113 -42 -52 -18 -159 -57 -237 -86 -78 -29 -161 -57 -185 -60 -24 -4 -77 -22
-118 -39 -41 -18 -109 -43 -150 -56 -41 -13 -82 -29 -90 -35 -21 -17 -106 -38
-125 -30 -9 3 -13 2 -10 -3 3 -5 -20 -17 -51 -26 -31 -9 -73 -27 -93 -40 -20
-12 -67 -28 -104 -34 -38 -7 -85 -22 -105 -35 -21 -13 -43 -21 -51 -18 -8 3
-11 0 -7 -7 4 -6 0 -12 -11 -12 -10 -1 -27 -3 -38 -4 -61 -8 -91 -8 -101 -3
-5 4 -16 2 -24 -4 -12 -8 -11 -9 4 -4 16 6 17 4 6 -9 -14 -17 -35 -21 -25 -5
9 14 -8 13 -23 -2 -7 -7 -12 -8 -12 -2 0 13 77 55 129 70 107 30 190 64 214
88 19 19 37 26 64 26 21 0 59 11 84 25 26 13 75 34 110 46 35 12 107 41 159
64 52 24 115 46 140 49 25 4 70 15 100 26 30 10 85 26 122 35 37 9 93 30 125
46 32 16 49 26 38 23 -153 -53 -207 -69 -305 -89 -63 -14 -140 -26 -170 -26
-33 -1 -43 -4 -25 -6 27 -4 25 -6 -25 -23 -30 -10 -57 -17 -61 -14 -4 2 -9 -3
-13 -11 -3 -8 -10 -15 -16 -15 -6 0 -8 4 -5 10 3 6 -1 7 -9 4 -9 -3 -13 -11
-9 -17 3 -6 1 -7 -5 -3 -6 4 -23 4 -37 0 -20 -5 -23 -9 -13 -15 7 -5 10 -9 7
-9 -3 0 -43 -12 -90 -26 -99 -31 -148 -42 -209 -50 -25 -3 -49 -10 -54 -14 -5
-5 -18 -4 -30 2 -20 10 -20 10 2 -14 22 -24 30 -44 13 -34 -5 3 -27 -1 -50 -9
-37 -13 -42 -12 -58 3 -16 16 -16 16 -10 0 5 -14 -2 -20 -31 -27 -34 -9 -49
-12 -120 -27 -15 -3 -21 -1 -17 6 4 6 1 17 -5 25 -10 12 -9 16 1 19 8 3 63 23
123 46 59 22 111 38 115 36 3 -2 38 7 76 20 l70 25 -50 -5 c-46 -5 -48 -4 -17
6 98 33 -38 23 -168 -13 -124 -34 -160 -50 -160 -70 0 -24 -7 -24 -53 0 -34
17 -36 20 -18 26 12 3 34 26 50 49 l30 43 54 -5 c31 -2 63 1 73 7 16 10 14 10
-11 6 l-30 -6 27 16 c43 25 110 30 146 11 17 -9 39 -13 49 -10 10 3 25 8 33
10 12 4 12 7 1 13 -10 7 -9 10 8 16 12 4 21 15 21 27 0 17 -3 18 -15 8 -8 -7
-36 -14 -62 -16 -27 -2 -64 -8 -83 -14 -19 -6 -69 -15 -110 -21 -120 -17 -144
-24 -135 -39 3 -5 -7 -7 -22 -5 -16 1 -27 8 -26 14 2 6 -1 11 -6 11 -5 0 -18
3 -28 6 -16 6 -16 5 2 -9 16 -13 17 -16 5 -17 -9 0 -21 5 -28 12 -8 8 -10 2
-7 -28 3 -21 3 -34 -1 -27 -6 14 -70 -3 -159 -43 -32 -14 -64 -23 -71 -20 -31
12 -9 35 73 77 48 24 94 50 101 57 9 8 25 11 38 8 12 -3 25 -2 29 4 3 5 30 17
61 26 55 18 66 36 26 42 -12 2 -22 7 -22 12 0 4 -9 6 -20 3 -15 -4 -19 -1 -15
9 5 11 -1 14 -24 10 -17 -2 -28 -9 -25 -14 4 -6 -2 -8 -15 -3 -19 6 -20 4 -11
-20 14 -36 14 -35 -24 -35 -18 0 -46 -4 -62 -9 -16 -5 -44 -12 -63 -15 -31 -6
-33 -4 -28 17 5 20 3 19 -17 -7 -13 -16 -28 -26 -33 -23 -6 4 -32 -2 -59 -12
-86 -33 -94 -34 -94 -17 0 9 6 16 13 16 7 0 38 16 70 36 44 27 57 41 57 60 0
29 15 31 30 5 10 -19 12 -19 87 9 45 16 78 34 78 41 0 8 -4 13 -10 13 -5 -1
-50 -5 -99 -8 -61 -5 -93 -12 -100 -21 -12 -16 -120 -40 -142 -31 -20 8 -18
55 4 62 9 3 29 12 44 20 21 11 33 12 48 4 16 -9 24 -7 43 10 16 16 17 20 4 15
-12 -5 -17 -2 -17 9 0 14 -4 15 -20 6 -14 -8 -26 -8 -41 0 -12 7 -45 9 -87 5
-37 -4 -73 -7 -79 -8 -17 -1 -16 -7 7 -42 11 -16 20 -38 20 -47 0 -10 3 -18 7
-17 18 3 52 -14 47 -22 -3 -5 2 -34 11 -64 15 -53 15 -56 -5 -77 -27 -29 -25
-38 10 -83 17 -21 28 -45 25 -53 -3 -7 -5 -18 -5 -23 0 -21 -20 -7 -26 19 -9
37 -46 112 -56 112 -15 0 -8 17 17 44 28 30 34 83 10 92 -14 6 -95 -18 -145
-43 -58 -29 -24 14 53 66 45 31 47 34 33 50 -9 10 -22 18 -29 19 -6 1 -46 4
-87 8 -103 8 -104 8 -84 39 11 17 25 25 46 25 19 0 27 4 22 11 -4 8 0 9 15 4
16 -5 20 -3 15 9 -7 18 12 21 34 7 9 -5 32 0 63 15 27 13 53 24 59 24 5 0 10
5 10 10 0 6 -6 10 -13 8 -15 -2 -125 12 -144 19 -8 3 -13 -2 -13 -16 0 -12 -3
-21 -6 -21 -10 0 -49 23 -77 46 -28 24 -62 22 -53 -2 7 -17 -13 -64 -27 -64
-5 0 -8 -23 -5 -55 3 -32 1 -55 -5 -55 -5 0 -7 -16 -4 -37 8 -45 -3 -34 -31
34 -27 65 -27 66 3 99 33 35 32 42 -8 59 -43 18 -60 39 -52 64 10 32 53 39
106 17 11 -5 27 2 45 19 46 42 17 67 -91 78 -24 3 -49 9 -57 13 -7 5 -32 11
-55 14 -41 5 -42 6 -30 30 8 17 22 26 42 28 54 5 86 23 83 46 -3 18 -12 22
-68 27 -50 5 -67 3 -75 -8 -7 -10 -19 -12 -38 -8 -21 6 -27 13 -27 36 0 17 8
33 20 42 17 12 19 18 10 42 -6 15 -19 40 -29 54 -14 19 -19 42 -18 77 2 62
-13 84 -59 84 -24 0 -34 5 -39 21 -4 12 -3 25 2 29 13 14 73 22 73 10 0 -6 5
-8 12 -4 7 5 21 9 30 9 10 1 27 10 38 20 19 18 20 18 20 -4 0 -26 36 -43 62
-29 10 5 18 20 18 33 0 25 -11 30 -53 25 -25 -2 -57 40 -54 70 1 19 8 26 27
27 21 2 40 5 83 12 18 3 4 42 -23 61 -19 14 -29 28 -27 43 2 26 27 57 44 57
20 0 23 14 10 52 -10 29 -16 34 -29 27 -11 -6 -18 -4 -22 6 -3 10 1 18 12 22
9 4 25 16 34 28 10 11 17 15 18 8 0 -21 26 -15 39 10 7 13 13 38 13 56 1 18 7
35 15 38 7 3 13 11 13 19 0 7 11 16 25 20 22 5 24 10 19 40 -7 48 19 89 68
105 48 16 51 20 34 54 -17 33 -14 43 35 117 39 57 63 80 118 110 17 9 35 28
40 42 10 23 69 76 87 76 8 0 24 13 94 72 8 7 32 25 53 39 21 14 46 37 55 51
21 32 109 107 182 156 30 20 71 48 90 63 30 22 67 43 215 123 11 6 34 21 50
32 17 12 75 45 130 74 55 29 133 72 174 97 40 25 90 51 110 58 20 7 106 47
191 89 130 64 162 76 200 75 25 -1 55 3 66 9 11 6 58 51 105 100 77 82 159
153 187 163 12 4 84 65 144 121 22 20 63 52 91 71 29 19 64 45 78 58 57 53 80
69 138 101 33 18 81 53 108 77 26 24 57 47 68 52 11 5 34 18 50 29 17 10 80
44 140 76 61 31 115 60 120 64 6 4 26 13 45 18 68 21 146 50 225 85 44 19 100
40 125 47 25 6 66 20 91 30 82 34 679 180 739 180 19 0 78 8 130 16 186 32
534 42 780 24z m-2410 -1185 c-7 -8 -17 -15 -22 -15 -11 0 14 29 26 30 5 0 3
-7 -4 -15z m2945 -475 c14 -16 31 -20 81 -20 35 0 66 -4 69 -10 8 -14 -148
-13 -161 0 -14 14 -63 17 -151 10 -74 -5 -88 1 -55 26 11 9 48 13 108 14 78 0
93 -3 109 -20z m255 -46 c0 -11 -5 -14 -16 -10 -9 3 -20 6 -25 6 -6 0 -7 5 -4
10 10 16 45 12 45 -6z m231 -19 c-1 -15 -24 -12 -29 3 -3 9 2 13 12 10 10 -1
17 -7 17 -13z m-516 -185 c13 -6 -5 -8 -55 -8 -52 0 -67 2 -50 8 33 11 80 11
105 0z m-1815 -121 c16 -30 11 -36 -10 -10 l-20 23 0 -27 c0 -21 -4 -26 -16
-21 -9 3 -17 6 -19 6 -2 0 3 13 11 30 16 31 37 31 54 -1z m115 -29 c-3 -5 -11
-10 -16 -10 -6 0 -7 5 -4 10 3 6 11 10 16 10 6 0 7 -4 4 -10z m870 0 c3 -5 1
-10 -5 -10 -7 0 -19 -9 -28 -19 -10 -10 -30 -22 -45 -25 -26 -6 -27 -5 -17 13
11 21 55 50 77 51 6 0 15 -4 18 -10z m515 0 c0 -5 -5 -10 -11 -10 -5 0 -7 5
-4 10 3 6 8 10 11 10 2 0 4 -4 4 -10z m-1580 -14 c0 -3 -4 -8 -10 -11 -5 -3
-10 -1 -10 4 0 6 5 11 10 11 6 0 10 -2 10 -4z m421 -47 c20 -1 20 -2 4 -6 -11
-2 -26 -17 -34 -33 -15 -36 -31 -39 -31 -7 0 17 -2 19 -9 8 -7 -11 -13 -12
-23 -4 -7 6 -22 12 -32 14 -18 4 -16 8 14 42 l33 38 27 -26 c14 -14 37 -26 51
-26z m283 42 c3 -5 -3 -11 -15 -14 -16 -4 -18 -3 -8 9 13 16 16 17 23 5z m202
-37 c15 -13 16 -15 2 -10 -9 3 -45 0 -80 -6 -35 -6 -70 -12 -78 -13 -8 -1 -23
-5 -32 -9 -40 -14 -49 -15 -43 -6 3 6 2 10 -4 10 -5 0 -13 -5 -16 -10 -4 -6
-12 -7 -18 -3 -7 4 -5 -2 3 -12 10 -13 11 -16 2 -11 -8 5 -22 1 -35 -11 -22
-18 -22 -18 -5 2 11 13 14 26 9 34 -7 11 -10 9 -16 -8 -3 -11 -11 -21 -17 -21
-5 0 -8 6 -5 13 5 14 -59 17 -80 4 -6 -4 -18 -4 -27 -1 -9 3 -16 1 -16 -5 0
-6 -7 -8 -15 -4 -9 3 -24 -2 -35 -12 -18 -16 -18 -16 -13 4 4 14 18 24 47 32
22 5 55 14 71 18 17 4 59 7 95 5 62 -3 161 8 225 26 46 12 60 11 81 -6z m639
-2 c-3 -3 -11 0 -18 7 -9 10 -8 11 6 5 10 -3 15 -9 12 -12z m1335 -46 c30 -8
79 -26 108 -39 62 -29 202 -118 202 -129 0 -4 27 -36 60 -69 33 -35 73 -89 89
-123 49 -101 47 -113 -22 -135 -43 -15 -50 -24 -49 -64 l1 -30 -54 6 c-30 3
-57 2 -60 -3 -3 -4 -21 -8 -40 -8 -19 0 -54 -9 -77 -20 -24 -12 -60 -24 -80
-27 -21 -4 -38 -11 -38 -16 0 -15 41 -31 66 -25 23 6 81 -21 69 -32 -2 -3 3
-11 13 -19 15 -13 10 -14 -37 -8 -30 3 -62 10 -72 16 -33 17 -116 11 -136 -10
-17 -18 -72 -41 -135 -55 -16 -4 -28 -12 -28 -20 0 -7 -6 -19 -14 -25 -15 -12
-163 -57 -200 -60 -5 -1 3 -10 17 -21 20 -16 40 -20 106 -20 63 0 88 -4 113
-20 18 -11 51 -25 73 -31 59 -15 95 -30 95 -40 0 -5 -29 -9 -65 -9 -53 0 -63
3 -59 15 5 11 -1 15 -22 16 -40 2 -193 -1 -226 -5 -15 -2 -25 0 -23 5 3 4 0 9
-6 11 -8 3 -6 10 5 21 20 20 14 22 -16 6 -11 -6 -60 -17 -109 -25 -182 -30
-186 -51 -8 -48 129 2 130 2 141 -22 6 -13 19 -24 28 -24 45 0 137 -34 171
-63 20 -18 38 -36 38 -41 1 -5 -7 -2 -17 7 -16 15 -46 23 -117 33 -11 1 -42 3
-69 3 -39 1 -47 4 -42 16 22 54 28 51 -54 31 -14 -4 -59 -11 -100 -17 -41 -5
-86 -12 -99 -14 -36 -6 -43 3 -26 35 20 39 19 43 -7 26 -26 -15 -257 -71 -264
-63 -3 3 2 19 10 35 17 32 47 42 188 62 67 10 72 13 83 50 8 25 7 25 -13 7
-19 -17 -144 -46 -201 -47 -23 0 -23 1 -7 19 33 36 202 96 227 81 7 -5 18 -5
24 -1 5 5 43 11 83 14 84 7 98 13 78 33 -13 13 -23 12 -80 -2 -71 -18 -126
-13 -107 10 12 14 56 34 146 67 33 12 54 24 48 26 -7 3 -13 8 -13 13 0 13 68
52 134 76 45 16 61 27 62 41 1 18 -2 19 -37 9 -21 -5 -42 -7 -46 -3 -10 11 97
116 135 132 41 18 46 55 7 55 -14 0 -25 5 -25 11 0 17 33 72 55 91 l20 17 -20
15 c-20 16 -19 16 12 43 35 30 36 44 7 110 -10 22 -19 30 -32 27 -15 -4 -17 3
-16 57 0 60 1 63 34 81 43 22 142 24 220 4z m-480 -8 c0 -6 -66 -76 -147 -155
-116 -114 -149 -140 -155 -128 -14 23 -30 18 -68 -21 -41 -43 -83 -66 -104
-58 -11 4 -3 18 36 57 69 69 147 118 169 107 22 -12 30 -2 23 27 -8 29 19 63
45 56 10 -3 32 10 57 32 39 37 122 94 137 95 4 0 7 -5 7 -12z m-1268 -69 l-10
-44 -1 55 c-1 39 2 51 10 43 7 -7 8 -24 1 -54z m43 31 c4 -6 10 -8 15 -5 4 3
13 -2 19 -9 9 -11 9 -23 -3 -50 -24 -57 -37 -48 -52 37 -6 35 6 51 21 27z
m-515 -14 c0 -2 -7 -7 -16 -10 -8 -3 -12 -2 -9 4 6 10 25 14 25 6z m500 -188
c0 -5 -4 -8 -9 -8 -8 0 -14 25 -26 105 -3 17 4 3 15 -30 11 -33 20 -63 20 -67z
m426 107 c20 -8 33 -19 30 -24 -8 -12 -74 8 -80 26 -7 17 6 17 50 -2z m-1206
-19 c0 -2 -7 -7 -16 -10 -8 -3 -12 -2 -9 4 6 10 25 14 25 6z m1095 -72 c13 -5
14 -8 3 -15 -22 -14 -58 -10 -58 6 0 16 26 20 55 9z m-786 -37 c-2 -1 -15 -11
-29 -22 l-25 -20 19 23 c11 12 24 22 29 22 6 0 8 -1 6 -3z m91 -23 c23 -14 23
-14 3 -9 -13 4 -23 2 -23 -3 0 -5 -29 -22 -65 -37 -36 -16 -67 -36 -70 -45 -5
-16 -38 -21 -51 -7 -13 13 31 50 101 83 80 39 73 38 105 18z m1855 -23 c3 -5
1 -12 -5 -16 -5 -3 -10 1 -10 9 0 18 6 21 15 7z m-1538 -73 c-3 -7 -5 -2 -5
12 0 14 2 19 5 13 2 -7 2 -19 0 -25z m888 -24 c-11 -8 -31 -18 -45 -21 -14 -3
-27 -10 -30 -14 -3 -4 -28 -9 -55 -11 -39 -2 -50 0 -50 12 0 9 14 18 35 22 19
4 62 13 95 21 67 14 79 12 50 -9z m-599 -15 c3 -6 0 -15 -7 -20 -22 -14 -28
-11 -22 11 6 22 18 26 29 9z m-3579 -23 c47 -18 48 -23 8 -36 -49 -16 -85 -6
-85 24 0 29 10 39 29 30 9 -4 31 -12 48 -18z m2829 -7 c19 -11 39 -31 45 -42
10 -22 10 -22 -8 0 -25 31 -87 55 -120 47 -18 -5 -24 -4 -19 5 11 18 66 13
102 -10z m-130 -32 c-54 -41 -125 -115 -118 -122 4 -5 -1 -5 -11 -2 -15 6 -17
3 -11 -15 6 -21 5 -22 -11 -8 -11 8 -16 10 -12 3 4 -6 -3 -22 -16 -35 -19 -19
-30 -22 -61 -17 -30 5 -40 2 -49 -12 -18 -29 -44 -23 -56 13 -6 17 -14 29 -17
25 -3 -3 -1 -14 5 -25 15 -29 14 -45 -3 -39 -8 3 -20 -1 -27 -9 -7 -8 -24 -14
-38 -13 -14 1 -39 -3 -55 -10 -16 -6 -34 -10 -40 -8 -6 2 -24 -4 -41 -13 -16
-9 -36 -15 -43 -12 -16 5 70 96 111 118 29 16 110 33 185 39 95 8 156 27 181
57 12 16 50 47 84 68 67 44 89 53 43 17z m-2936 -17 c0 -5 -4 -10 -10 -10 -5
0 -10 5 -10 10 0 6 5 10 10 10 6 0 10 -4 10 -10z m508 -20 c7 0 12 -13 12 -30
0 -34 -4 -36 -54 -15 -52 22 -45 61 9 50 11 -3 26 -5 33 -5z m3697 -20 c-3 -5
-14 -10 -23 -10 -15 0 -15 2 -2 10 20 13 33 13 25 0z m-3927 -48 c2 -12 -1
-22 -6 -22 -15 0 -34 28 -27 40 10 17 30 6 33 -18z m1920 -12 c23 -17 42 -34
42 -38 0 -9 -56 -62 -65 -62 -2 0 -2 7 1 15 4 11 2 13 -9 10 -8 -4 -17 1 -21
11 -5 12 -9 14 -20 5 -7 -6 -16 -8 -19 -4 -4 3 -25 -13 -48 -36 -23 -22 -48
-41 -55 -41 -8 0 -14 -5 -14 -10 0 -6 -10 -24 -22 -41 -18 -24 -24 -49 -29
-122 l-6 -92 -1 76 c-3 108 16 163 80 230 29 30 68 72 86 92 19 20 39 37 46
37 7 0 32 -14 54 -30z m1772 -10 c-20 -12 -97 -37 -140 -44 -33 -6 -33 -5 10
13 25 11 52 20 61 20 9 1 29 8 45 16 29 15 49 11 24 -5z m-2862 -10 c43 -26
41 -40 -6 -40 -45 0 -80 28 -60 48 16 16 28 15 66 -8z m290 -10 c65 -40 28
-52 -101 -35 -57 8 -57 -7 1 -45 29 -19 33 -25 19 -28 -10 -2 -29 4 -43 13
-20 13 -44 16 -110 13 -57 -2 -84 1 -84 8 0 15 103 54 141 54 16 0 29 4 29 8
0 14 42 31 80 31 19 1 50 -8 68 -19z m1916 -33 c28 -41 35 -65 10 -32 -16 21
-51 84 -41 75 3 -3 17 -22 31 -43z m2256 24 c0 -5 -9 -11 -20 -14 -11 -3 -18
-1 -15 3 3 5 -1 11 -7 13 -7 3 -1 6 15 6 15 1 27 -3 27 -8z m-5000 -16 c10
-12 10 -15 -3 -15 -8 0 -20 7 -27 15 -10 12 -10 15 3 15 8 0 20 -7 27 -15z
m1100 -7 c46 -34 39 -40 -35 -29 -20 3 -47 30 -40 40 10 18 44 13 75 -11z
m2068 -10 c-16 -49 -26 -55 -38 -22 -9 24 -8 31 6 41 33 24 44 17 32 -19z
m-870 -38 c17 -11 32 -22 32 -26 0 -4 -60 28 -79 43 -16 12 20 -1 47 -17z
m-761 -22 c-9 -6 -9 -13 2 -30 13 -23 13 -23 -10 1 -17 16 -20 25 -11 28 10 4
10 8 0 21 -12 14 -11 14 9 1 16 -9 19 -16 10 -21z m140 12 c3 -10 2 -11 -4 -4
-4 7 -17 14 -28 17 -16 5 -15 5 4 4 14 -1 26 -9 28 -17z m533 -15 c8 -11 10
-17 5 -12 -5 4 -22 -5 -39 -20 l-29 -28 21 32 c12 17 22 37 22 44 0 7 1 10 3
8 1 -2 9 -13 17 -24z m-1233 -9 c31 -26 27 -44 -5 -27 -27 15 -57 14 -122 -3
-30 -8 -56 -13 -58 -11 -2 1 16 17 40 34 53 39 104 42 145 7z m266 0 c29 -12
25 -13 -48 -8 -87 5 -97 8 -75 23 17 11 78 4 123 -15z m386 -5 c-8 -2 -27 -10
-44 -19 l-29 -15 29 31 c23 25 32 29 43 19 12 -9 12 -12 1 -16z m440 -10 c17
-16 31 -35 30 -43 0 -7 -5 -3 -12 10 -9 20 -16 23 -46 17 -40 -7 -74 -32 -65
-47 4 -6 -3 -5 -14 1 -20 11 -19 13 21 51 23 22 45 40 48 40 4 0 21 -13 38
-29z m292 2 c13 -16 12 -17 -3 -4 -10 7 -18 15 -18 17 0 8 8 3 21 -13z m209
-20 c0 -7 -39 17 -46 28 -3 6 5 3 20 -6 14 -10 26 -19 26 -22z m2260 17 c0 -5
9 -10 21 -10 11 0 17 -5 14 -10 -4 -6 -10 -8 -15 -5 -5 3 -11 1 -14 -4 -5 -8
-60 -21 -108 -26 -29 -3 -29 -9 2 -42 19 -20 43 -33 70 -38 22 -4 43 -12 47
-17 4 -7 -2 -9 -15 -6 -12 4 -25 2 -28 -3 -11 -18 -41 -8 -53 17 l-12 27 -87
-8 c-48 -4 -99 -8 -114 -10 -21 -1 -28 4 -33 24 -9 34 13 49 87 57 49 6 62 11
70 30 11 23 11 23 141 32 15 1 27 -2 27 -8z m814 -17 c5 -11 2 -13 -10 -9 -8
3 -20 6 -25 6 -4 0 -6 6 -3 14 7 18 30 11 38 -11z m-7909 7 c3 -5 -1 -10 -9
-10 -9 0 -16 5 -16 10 0 6 4 10 9 10 6 0 13 -4 16 -10z m4870 -28 c-3 -3 -11
0 -18 7 -9 10 -8 11 6 5 10 -3 15 -9 12 -12z m4286 9 c6 10 9 8 9 -9 0 -13 -4
-20 -10 -17 -5 3 -10 1 -10 -4 0 -17 -20 -13 -27 5 -3 9 0 20 8 25 9 5 15 4
18 -2 2 -7 7 -6 12 2z m-4380 -54 c-16 -16 -26 0 -10 19 9 11 15 12 17 4 2 -6
-1 -17 -7 -23z m-1431 13 c11 -7 0 -10 -38 -10 -33 0 -51 4 -47 10 8 13 65 13
85 0z m-740 -40 c46 -25 34 -25 -21 0 -24 11 -37 19 -29 19 8 0 31 -8 50 -19z
m-2672 -44 c12 -21 16 -33 8 -30 -7 3 -25 0 -40 -6 -22 -8 -31 -7 -44 7 -12
12 -13 18 -4 21 6 2 12 10 12 17 0 13 14 23 37 24 6 1 20 -14 31 -33z m4302
-9 c0 -2 -10 -12 -21 -23 -22 -19 -22 -19 -8 4 12 19 29 30 29 19z m710 -35
c-6 -2 -8 -7 -6 -11 3 -4 -1 -8 -8 -8 -11 0 -12 5 -3 24 8 17 13 20 18 11 5
-7 4 -15 -1 -16z m-140 -91 c0 -12 -31 -43 -37 -37 -9 9 9 46 23 46 8 0 14 -4
14 -9z m-4956 -23 c12 -20 9 -25 -23 -30 -20 -2 -26 3 -32 25 -7 26 -6 28 18
25 14 -2 31 -11 37 -20z m6172 -26 c-13 -25 -26 -31 -88 -45 -40 -9 -90 -20
-111 -23 -38 -6 -38 -6 -25 15 13 22 168 80 216 81 22 0 22 -1 8 -28z m2994
-24 c0 -13 -4 -29 -9 -36 -7 -11 -10 -10 -15 3 -11 29 -7 55 9 55 9 0 15 -9
15 -22z m137 -10 c-3 -7 -5 -2 -5 12 0 14 2 19 5 13 2 -7 2 -19 0 -25z m-2867
-18 c0 -31 -68 -59 -183 -74 -58 -8 -104 -10 -108 -4 -3 4 -11 -3 -19 -16 -13
-26 -27 -31 -120 -41 -30 -3 -81 -16 -112 -29 -32 -13 -58 -22 -58 -19 0 13
84 125 103 137 12 8 42 17 67 20 25 3 72 10 105 16 33 6 83 15 110 19 28 5 87
9 133 10 75 1 82 -1 82 -19z m2603 -12 c-3 -18 -10 -34 -15 -36 -4 -2 -8 -14
-8 -27 0 -13 -5 -27 -12 -31 -14 -9 -38 23 -38 52 0 29 37 74 60 74 17 0 19
-5 13 -32z m-4170 7 c-3 -9 -8 -14 -10 -11 -3 3 -2 9 2 15 9 16 15 13 8 -4z
m882 -5 c-3 -5 -12 -10 -18 -10 -7 0 -6 4 3 10 19 12 23 12 15 0z m158 -30
c-4 -4 -28 -15 -53 -24 l-45 -16 44 6 43 6 -18 -32 c-11 -17 -31 -40 -45 -50
-29 -21 -153 -50 -213 -50 -33 0 -37 2 -26 15 7 8 17 15 22 15 6 0 27 13 47
29 20 16 54 32 76 35 22 4 47 12 55 17 16 11 -17 8 -69 -7 -21 -6 -23 -5 -16
17 4 13 9 25 10 27 2 2 45 14 97 26 78 19 94 20 96 8 2 -8 0 -18 -5 -22z
m-1222 -27 c16 -49 8 -48 -16 2 -13 27 -16 41 -8 38 6 -3 17 -20 24 -40z
m1014 38 c-11 -10 -140 -51 -159 -51 -17 1 76 42 103 46 13 1 26 5 29 8 3 3
12 6 21 6 9 0 11 -3 6 -9z m898 -6 c93 -7 127 -19 127 -46 0 -8 -60 -13 -182
-14 -20 0 -34 -4 -31 -8 3 -5 -1 -8 -8 -6 -34 4 -52 -3 -79 -31 -29 -29 -35
-31 -123 -34 -120 -5 -177 -15 -201 -38 -11 -10 -24 -18 -28 -18 -5 0 -21 -9
-36 -20 -18 -13 -56 -24 -112 -31 -47 -5 -97 -14 -112 -19 -33 -10 -45 2 -21
21 9 8 22 28 29 46 12 26 21 33 64 42 28 6 91 11 140 11 88 0 90 0 90 24 0 13
8 27 18 31 9 4 78 11 152 15 74 5 136 9 137 9 1 1 5 16 8 34 10 45 14 49 43
43 15 -3 71 -8 125 -11z m-908 -47 c-12 -40 -40 -59 -120 -79 -44 -11 -91 -27
-105 -35 -23 -14 -21 -15 35 -10 153 14 62 -55 -103 -78 -34 -5 -42 -4 -36 6
4 7 -2 3 -14 -8 -21 -22 -98 -40 -205 -48 -32 -2 -64 -9 -70 -15 -6 -6 -22
-11 -36 -10 -19 0 -6 10 49 35 41 20 88 38 105 41 139 25 215 57 255 108 31
40 45 48 135 79 121 42 118 41 110 14z m-1220 -8 c3 -5 1 -10 -4 -10 -6 0 -11
5 -11 10 0 6 2 10 4 10 3 0 8 -4 11 -10z m2317 -29 c66 -23 122 -51 115 -58
-7 -6 -117 28 -117 37 0 3 -13 5 -30 4 -24 -2 -30 2 -30 17 0 23 -5 23 62 0z
m-233 -64 c48 -12 87 -28 89 -36 3 -10 -1 -12 -14 -8 -80 25 -135 37 -171 39
-41 1 -51 7 -36 21 10 11 43 7 132 -16z m-1148 -1 c-13 -15 -51 -28 -51 -17 0
6 34 23 59 30 2 1 -2 -5 -8 -13z m409 -26 c0 -19 -48 -60 -72 -61 -13 -1 -34
-3 -48 -5 -106 -15 -160 -19 -160 -14 0 3 14 19 30 35 23 23 46 31 103 41 93
15 147 17 147 4z m3410 -56 c0 -21 -4 -33 -10 -29 -5 3 -10 22 -10 41 0 21 4
33 10 29 6 -3 10 -22 10 -41z m-176 28 c5 -8 10 -98 7 -131 -3 -41 -41 57 -41
107 0 30 21 45 34 24z m-2747 -18 c37 -5 50 -10 46 -20 -3 -10 -10 -11 -23 -4
-9 5 -20 7 -23 4 -2 -3 -41 -7 -86 -9 -77 -4 -118 -16 -133 -39 -15 -23 -18 4
-4 38 l15 36 78 0 c43 0 101 -3 130 -6z m-6384 -44 c3 -11 1 -20 -4 -20 -5 0
-9 9 -9 20 0 11 2 20 4 20 2 0 6 -9 9 -20z m5563 -18 c1 -44 -44 -69 -138 -77
-60 -6 -78 -4 -78 5 0 7 8 19 18 26 14 11 14 13 2 14 -8 0 -25 -16 -37 -34
-36 -57 -127 -94 -253 -105 -124 -10 -141 -10 -134 1 3 4 9 8 15 8 5 0 44 22
87 48 99 62 95 60 239 82 77 12 134 27 155 40 20 12 50 20 78 20 43 0 45 -2
46 -28z m267 19 c15 -2 6 -35 -17 -56 -23 -21 -74 -31 -254 -50 l-43 -4 46 46
c43 43 49 45 122 55 43 5 79 11 81 13 3 3 29 2 65 -4z m177 -43 c72 0 132 -3
134 -7 3 -4 1 -13 -5 -21 -5 -8 -9 -11 -9 -6 0 5 -6 3 -14 -3 -7 -6 -62 -13
-124 -15 -61 -2 -116 -8 -123 -12 -8 -5 -9 -3 -3 7 5 9 -1 8 -20 -4 l-28 -19
7 24 c11 36 35 69 46 63 5 -4 68 -7 139 -7z m528 -8 c77 -19 142 -44 142 -56
0 -2 -8 0 -18 5 -20 11 -42 16 -136 32 -33 5 -63 12 -67 15 -4 2 -22 -8 -41
-23 l-33 -28 30 37 c17 20 32 37 35 37 3 1 42 -8 88 -19z m-1450 -42 c-4 -10
-106 -47 -131 -48 -23 0 4 25 43 41 53 21 93 24 88 7z m1171 -2 c73 -13 111
-37 111 -70 0 -8 -2 -8 -8 0 -14 21 -51 34 -99 34 -26 0 -65 3 -85 6 -33 6
-36 9 -27 25 11 22 11 22 108 5z m-779 -25 c0 -5 -13 -22 -28 -39 -28 -30 -69
-43 -179 -56 -50 -6 -53 1 -15 35 45 42 61 51 95 59 46 11 127 12 127 1z
m1228 -26 c-3 -3 -9 2 -12 12 -6 14 -5 15 5 6 7 -7 10 -15 7 -18z m-900 -18
c37 -30 -67 -54 -261 -61 l-127 -5 37 45 38 45 150 -7 c82 -4 156 -11 163 -17z
m143 -27 c30 -5 66 -11 82 -12 18 -2 26 -7 22 -16 -3 -8 -5 -18 -5 -24 0 -7
-4 -7 -12 -1 -7 6 -35 11 -63 12 -46 3 -131 8 -164 10 -11 1 -10 6 4 21 20 23
54 25 136 10z m3037 -17 c17 -42 27 -163 14 -163 -6 0 -14 17 -17 38 -4 20
-11 53 -16 72 -18 71 -4 111 19 53z m-4101 11 c-3 -3 -12 -4 -19 -1 -8 3 -5 6
6 6 11 1 17 -2 13 -5z m280 -22 c30 -9 18 -25 -37 -46 -31 -12 -84 -20 -168
-24 -67 -2 -125 -9 -128 -13 -3 -5 -10 -9 -16 -9 -17 0 73 70 99 76 61 16 217
25 250 16z m233 -24 c0 -4 -6 -8 -14 -8 -8 0 -21 -6 -28 -12 -7 -7 -29 -19
-48 -25 -37 -13 -183 -43 -188 -38 -8 7 39 47 82 70 42 21 61 25 123 23 40 -1
73 -5 73 -10z m-612 -41 c-67 -67 -80 -71 -216 -75 -123 -2 -123 -2 -120 20 5
36 61 57 184 69 60 6 125 14 144 18 19 4 37 7 39 5 1 -1 -12 -18 -31 -37z
m828 -12 c73 -14 121 -35 80 -35 -9 0 -15 -4 -12 -9 4 -5 -2 -8 -11 -6 -10 2
-18 4 -18 5 0 9 -119 15 -133 6 -6 -3 -13 -2 -16 2 -3 5 -31 5 -63 -1 -32 -5
-65 -9 -73 -9 -8 -1 -22 -6 -30 -12 -8 -6 3 8 25 31 39 41 41 42 107 43 36 0
101 -7 144 -15z m549 -7 c61 -15 115 -46 124 -71 14 -35 3 -33 -32 5 -23 25
-49 40 -92 52 -73 20 -116 38 -70 30 17 -3 48 -11 70 -16z m-1098 -16 c9 -5 7
-13 -5 -29 -23 -30 -126 -56 -227 -57 -59 -1 -82 -5 -86 -15 -3 -8 -15 -16
-27 -18 -12 -1 -39 -12 -59 -23 -21 -11 -45 -20 -54 -20 -9 0 -19 -6 -22 -13
-3 -9 -25 -15 -59 -16 -29 -1 -87 -4 -128 -6 -50 -3 -77 0 -83 8 -6 8 -7 6 -3
-6 5 -14 -5 -23 -47 -42 -28 -14 -59 -25 -67 -25 -8 0 -34 -7 -58 -15 -24 -9
-59 -18 -79 -21 -59 -9 -73 -13 -84 -20 -26 -16 30 107 58 128 21 15 76 118
63 118 -5 0 -18 -13 -30 -29 -22 -32 -81 -62 -230 -118 -61 -23 -96 -31 -98
-24 -5 15 -22 14 -22 -2 0 -13 -40 -37 -61 -37 -6 0 -22 -9 -35 -19 -14 -11
-49 -28 -77 -37 -29 -9 -97 -39 -152 -66 -55 -26 -110 -48 -122 -48 -29 0
-121 -35 -142 -54 -9 -8 -30 -22 -46 -30 l-30 -16 30 0 c17 0 37 -5 45 -10 12
-8 10 -10 -10 -10 -59 0 -313 -87 -265 -91 6 0 1 -4 -10 -9 -19 -8 -19 -9 3
-11 12 -1 27 -3 32 -4 6 -1 13 -3 16 -4 4 0 1 -7 -5 -15 -11 -14 -76 -29 -136
-32 -16 0 -59 -7 -94 -13 -34 -7 -65 -10 -68 -8 -8 9 54 47 140 86 47 22 109
55 138 75 30 20 88 47 130 61 71 24 144 75 108 75 -24 1 40 50 65 50 43 0 127
31 159 60 32 28 127 70 158 70 9 0 32 11 51 24 26 18 53 24 111 28 51 3 83 10
95 21 20 18 184 97 201 97 6 0 11 3 11 8 0 13 84 45 127 48 23 1 48 6 54 10
12 7 229 22 229 15 0 -2 -10 -20 -22 -40 -12 -20 -22 -37 -23 -38 -1 -1 -50
-12 -111 -23 -162 -31 -165 -37 -17 -36 73 1 133 4 133 9 0 17 59 67 97 82 33
13 68 16 176 13 92 -2 133 0 130 8 -6 16 35 31 122 44 44 6 87 13 95 15 31 6
105 4 117 -3z m228 -69 c12 -7 6 -14 -31 -32 -34 -18 -70 -25 -135 -29 -57 -3
-93 -10 -100 -18 -6 -8 -16 -14 -22 -14 -5 0 -17 -8 -26 -18 -22 -25 -91 -64
-91 -51 0 6 -8 5 -21 -2 -13 -7 -53 -9 -103 -7 -44 3 -94 1 -111 -3 l-30 -8
25 17 c13 9 38 29 55 43 41 35 58 38 153 24 66 -9 87 -9 113 2 31 13 69 48 69
64 0 4 15 17 33 28 28 18 43 20 119 17 48 -3 94 -9 103 -13z m560 -9 c36 -9
65 -20 65 -24 0 -4 11 -12 24 -18 13 -6 26 -22 29 -38 5 -28 5 -28 -12 -6 -17
23 -88 52 -127 52 -13 0 -24 4 -24 9 0 5 -25 12 -55 16 -30 3 -55 11 -55 16 0
14 85 11 155 -7z m2917 -31 c13 -27 12 -28 -42 -56 -70 -36 -110 -71 -119
-105 -9 -34 -33 -35 -42 -2 -11 38 -10 109 1 130 6 12 26 21 55 26 25 3 45 10
45 15 0 4 15 10 33 12 17 2 37 5 44 5 7 1 18 -10 25 -25z m137 1 c-6 -8 -20
-14 -30 -14 -14 0 -19 -11 -24 -57 -3 -32 -10 -75 -14 -95 -6 -23 -5 -40 2
-47 8 -8 6 -11 -6 -11 -9 0 -17 -4 -17 -9 0 -4 -11 -6 -25 -3 -19 3 -25 0 -25
-12 0 -14 -2 -15 -14 -4 -8 7 -12 16 -10 19 2 3 -9 4 -24 2 -47 -8 -3 15 55
28 29 7 50 16 47 20 -3 5 -9 36 -15 69 -8 50 -7 67 7 95 17 36 32 43 77 37 22
-4 25 -7 16 -18z m-3465 -47 c93 -23 116 -40 131 -97 l6 -25 -13 23 c-8 12
-23 28 -33 36 -25 17 -113 35 -183 38 -56 3 -68 9 -58 33 7 20 45 18 150 -8z
m3615 -70 c15 -15 14 -44 -3 -50 -16 -6 -27 34 -25 92 l1 36 8 -33 c4 -19 13
-39 19 -45z m-5073 -11 c-35 -51 -48 -63 -97 -79 -89 -30 -240 -42 -239 -18 1
3 19 19 41 34 28 19 85 39 173 62 72 18 134 33 138 34 4 1 -3 -14 -16 -33z
m1151 -46 c44 -20 62 -35 63 -53 0 -4 -11 0 -24 9 -15 9 -67 20 -133 26 -59 6
-110 12 -112 14 -2 2 3 12 12 22 15 16 25 17 82 11 36 -5 87 -18 112 -29z
m3269 14 c-4 -9 -9 -15 -11 -12 -3 3 -3 13 1 22 4 9 9 15 11 12 3 -3 3 -13 -1
-22z m-3846 -8 c0 -8 -9 -18 -20 -21 -11 -3 -20 -10 -20 -14 0 -4 -26 -9 -57
-10 -65 -2 -141 -19 -149 -32 -7 -11 -44 -12 -44 -1 0 11 -61 2 -77 -10 -7 -6
-13 -7 -13 -2 1 5 29 30 63 56 l62 48 128 0 c104 0 127 -3 127 -14z m1185 -31
c53 -17 34 -18 -35 0 -30 7 -44 13 -30 13 14 0 43 -5 65 -13z m81 -30 c10 -8
15 -14 9 -14 -5 0 -19 6 -29 14 -11 8 -15 15 -10 15 6 0 19 -7 30 -15z m-1399
-1 c-3 -3 -12 -4 -19 -1 -8 3 -5 6 6 6 11 1 17 -2 13 -5z m4249 -6 c4 -6 3 -8
-2 -5 -23 13 -34 -12 -35 -75 -1 -37 2 -71 6 -77 3 -6 1 -11 -5 -11 -17 0 -30
46 -30 105 0 49 2 54 28 63 15 6 28 11 29 11 1 1 5 -4 9 -11z m-4293 -5 c-7
-2 -19 -2 -25 0 -7 3 -2 5 12 5 14 0 19 -2 13 -5z m348 -19 c46 -14 70 -37 68
-66 0 -10 -2 -10 -6 0 -2 6 -15 12 -27 12 -12 0 -26 4 -31 9 -6 6 -57 12 -113
15 -57 2 -106 7 -109 10 -9 9 17 34 40 39 32 7 122 -3 178 -19z m-1081 7 c0
-17 -84 -84 -134 -106 -68 -30 -204 -73 -269 -84 -28 -5 -63 -13 -77 -17 -19
-5 -15 0 15 21 22 15 51 38 66 51 16 15 47 28 84 35 32 6 88 26 126 45 109 56
189 79 189 55z m250 -1 c11 -6 61 -12 111 -13 86 -3 93 -5 116 -31 13 -16 22
-30 19 -33 -8 -8 -58 -13 -169 -17 -83 -3 -105 -2 -95 7 7 7 22 22 33 35 16
20 17 25 5 32 -20 13 -43 13 -35 0 3 -6 -1 -7 -9 -4 -9 3 -16 1 -16 -6 0 -6
-4 -9 -9 -5 -5 3 -12 1 -16 -5 -3 -5 -15 -10 -25 -10 -12 0 -17 -5 -14 -14 9
-23 -54 -47 -140 -52 l-78 -6 37 46 c21 25 50 50 64 56 64 26 188 37 221 20z
m1430 -59 c40 -11 80 -27 89 -36 15 -15 14 -15 -14 -1 -16 9 -37 16 -45 16 -8
0 -44 9 -80 19 -85 25 -45 27 50 2z m3550 -75 c0 -77 -6 -69 -13 19 -4 46 -3
65 3 55 5 -8 10 -42 10 -74z m-8540 11 c0 -35 -11 -67 -21 -61 -10 6 -12 77
-3 87 11 11 24 -3 24 -26z m1320 29 c0 -2 -7 -7 -16 -10 -8 -3 -12 -2 -9 4 6
10 25 14 25 6z m2582 -21 c41 -6 51 -16 42 -39 -5 -12 -21 -16 -69 -16 -72 0
-95 6 -95 26 0 16 49 44 70 39 8 -2 32 -6 52 -10z m695 -52 c82 -25 133 -59
133 -87 0 -10 -12 -3 -32 19 -26 27 -51 40 -122 60 -48 14 -94 25 -102 25 -8
0 -14 5 -14 10 0 13 29 7 137 -27z m-1274 11 c20 -3 37 -10 37 -14 0 -12 -26
-31 -33 -23 -4 3 -14 0 -24 -8 -11 -9 -14 -10 -9 -1 4 6 2 12 -3 12 -6 0 -11
-4 -11 -8 0 -4 -17 -9 -37 -10 -21 0 -45 -2 -53 -2 -8 -1 -33 -1 -55 1 -22 1
-51 -1 -65 -5 -42 -13 26 27 90 52 54 21 72 22 163 6z m4942 6 c18 -8 18 -9 2
-9 -10 -1 -28 -6 -40 -13 -12 -7 -26 -13 -32 -14 -5 -1 -18 -5 -27 -9 -14 -6
-18 -2 -18 16 -1 21 -2 22 -11 6 -6 -9 -14 -15 -20 -12 -5 4 -9 -1 -9 -9 0 -9
-4 -16 -10 -16 -6 0 -8 -29 -5 -77 5 -71 4 -76 -10 -59 -19 24 -22 171 -3 182
34 21 146 30 183 14z m-8101 -52 c21 -71 3 -87 -24 -23 -20 47 -21 75 -1 75 5
0 16 -24 25 -52z m413 -44 c7 -27 19 -61 28 -77 16 -27 13 -67 -6 -67 -9 0
-13 20 -10 51 1 8 -12 33 -29 54 -28 36 -38 73 -23 89 15 14 29 -3 40 -50z
m2931 31 c29 -9 52 -22 52 -29 0 -28 -80 -39 -176 -24 l-89 13 45 28 c52 31
93 34 168 12z m644 -22 c26 -9 60 -27 75 -40 l28 -23 -42 15 c-23 7 -71 19
-105 26 -64 12 -88 23 -88 41 0 12 70 2 132 -19z m-1232 13 c0 -2 -15 -14 -32
-26 -33 -21 -33 -22 -5 -16 17 4 27 2 27 -5 0 -9 22 -10 78 -5 86 7 122 -7
122 -47 0 -21 -3 -22 -115 -22 -121 0 -128 3 -104 46 9 17 7 19 -13 15 -51
-11 -105 -19 -138 -20 -19 -1 -39 -6 -45 -12 -5 -7 -18 -9 -28 -5 -14 5 -3 16
54 54 66 44 76 47 135 47 35 0 64 -2 64 -4z m704 -40 c-5 -20 2 -24 72 -44 84
-25 134 -64 134 -104 0 -21 -2 -21 -15 7 -19 38 -69 72 -120 80 -100 17 -114
24 -112 53 1 20 8 27 24 28 19 2 22 -2 17 -20z m4336 8 c0 -8 -19 -13 -24 -6
-3 5 1 9 9 9 8 0 15 -2 15 -3z m-7125 -15 c4 -6 13 -8 21 -5 7 3 16 0 20 -6 4
-7 3 -8 -4 -4 -7 4 -12 3 -12 -3 0 -5 5 -13 10 -16 20 -13 9 -26 -22 -26 -18
0 -51 -1 -72 -2 -52 -3 -56 15 -9 39 21 10 40 22 41 27 5 10 20 9 27 -4z
m7477 -53 c-6 -48 -12 -46 -12 5 0 22 4 38 8 35 4 -3 6 -21 4 -40z m-8133 -59
c11 -14 71 -155 70 -166 0 -3 -13 19 -28 49 -15 30 -38 72 -50 93 -22 35 -16
52 8 24z m701 -21 c0 -26 -14 -40 -47 -49 -29 -7 -29 -5 2 44 27 42 45 44 45
5z m1748 2 c17 -5 37 -19 43 -30 9 -17 9 -20 -2 -16 -8 3 -47 13 -87 24 -64
16 -71 20 -56 31 17 12 38 11 102 -9z m616 1 c34 -12 57 -28 61 -40 4 -10 11
-19 16 -19 5 0 9 -8 9 -17 0 -13 -7 -10 -30 12 -17 16 -36 30 -43 31 -6 1 -25
5 -42 9 -16 4 -42 9 -57 12 -29 6 -37 18 -15 26 23 10 47 7 101 -14z m-2578
-151 c4 -26 3 -30 -6 -18 -19 26 -70 129 -70 142 0 24 70 -92 76 -124z m7334
114 c0 -19 -40 -54 -55 -48 -9 3 -14 2 -11 -3 3 -5 -1 -11 -9 -15 -10 -4 -15
-20 -15 -51 0 -25 -4 -45 -10 -45 -13 0 -21 38 -16 75 3 17 5 40 5 53 1 13 4
21 9 19 4 -3 21 1 37 8 35 16 65 19 65 7z m-7569 -23 c17 -33 60 -162 54 -167
-2 -2 -22 33 -44 78 -23 46 -46 89 -52 96 -9 11 -7 14 9 14 12 0 26 -10 33
-21z m1335 -54 c13 -13 24 -29 24 -35 0 -11 -66 33 -87 59 -7 8 -13 12 -13 8
0 -4 -9 -3 -20 3 -11 6 -18 15 -15 20 8 12 80 -24 111 -55z m442 51 c15 -8 36
-24 47 -36 16 -18 17 -23 5 -30 -9 -6 -20 -4 -31 6 -8 7 -20 14 -26 14 -5 0
-24 7 -42 16 -18 9 -41 14 -51 11 -11 -3 -18 0 -17 6 1 6 -11 14 -28 18 -21 5
-8 7 43 8 45 1 83 -4 100 -13z m1751 -12 c38 -14 78 -35 88 -47 18 -21 18 -21
-13 1 -17 11 -64 32 -105 46 -41 14 -66 26 -57 26 9 0 48 -12 87 -26z m-3048
5 c36 -12 69 -43 69 -64 0 -9 -19 -1 -51 21 -28 19 -55 34 -60 34 -5 0 -9 5
-9 10 0 13 9 13 51 -1z m1852 0 c54 -15 106 -65 112 -109 l5 -35 -12 32 c-7
18 -20 40 -29 48 -20 20 -157 58 -173 48 -6 -4 -5 1 3 10 16 20 40 21 94 6z
m-1412 -48 c35 -36 40 -60 7 -39 -13 8 -38 23 -57 33 -26 13 -31 19 -20 26 24
15 39 10 70 -20z m6786 -3 c-3 -7 -5 -2 -5 12 0 14 2 19 5 13 2 -7 2 -19 0
-25z m-5738 -76 c40 -30 65 -68 56 -89 -7 -17 -7 -17 -15 2 -14 36 -83 79
-142 90 -22 4 -35 12 -32 17 10 16 105 1 133 -20z m-1649 -31 c27 -20 70 -87
69 -111 0 -8 -9 1 -19 21 -18 35 -45 62 -100 102 l-25 18 25 -7 c14 -3 36 -14
50 -23z m6284 15 c-3 -8 -12 -12 -20 -9 -9 3 -12 0 -9 -9 7 -18 -20 -44 -30
-28 -3 5 1 10 10 10 11 0 15 5 11 15 -3 8 2 19 12 24 24 14 32 13 26 -3z
m-5559 -34 c53 -29 96 -81 94 -116 0 -16 -3 -14 -11 9 -16 47 -37 65 -113 101
-50 24 -63 33 -45 33 14 0 47 -12 75 -27z m458 8 c30 -11 63 -30 73 -42 19
-22 19 -22 -13 1 -18 12 -56 31 -85 41 -29 10 -48 19 -41 19 7 1 37 -8 66 -19z
m-97 -5 c16 -12 16 -14 3 -15 -9 0 -22 7 -29 15 -16 19 0 19 26 0z m-739 -25
c53 -30 83 -63 83 -90 0 -8 -6 -4 -13 10 -11 22 -39 44 -123 97 -40 25 4 11
53 -17z m6128 -70 c-9 -14 -45 -19 -45 -5 0 7 11 13 25 13 13 0 23 -4 20 -8z
m-229 -25 c-22 -19 -32 -22 -37 -13 -7 10 22 28 61 37 3 0 -8 -10 -24 -24z
m-51 -24 c-6 -5 -21 -12 -35 -16 -24 -7 -24 -7 -5 9 21 16 56 23 40 7z m375
-18 l25 -5 -25 -11 c-14 -5 -28 -9 -32 -9 -5 1 -8 -5 -8 -14 0 -8 -4 -13 -9
-10 -11 7 -64 -52 -86 -94 -9 -17 -18 -30 -21 -30 -3 0 15 38 41 85 25 47 41
85 35 85 -5 0 -10 4 -10 10 0 9 27 7 90 -7z m-387 -28 c-3 -9 -8 -14 -10 -11
-3 3 -2 9 2 15 9 16 15 13 8 -4z m614 9 c-3 -3 -12 -4 -19 -1 -8 3 -5 6 6 6
11 1 17 -2 13 -5z m-5364 -36 c43 -21 77 -52 77 -69 0 -7 -10 1 -22 16 -12 15
-49 41 -82 57 -34 16 -50 26 -36 22 14 -4 42 -15 63 -26z m4689 8 c7 4 8 2 4
-4 -4 -6 -13 -9 -21 -6 -8 4 -12 11 -8 17 5 8 8 7 11 -1 2 -7 9 -9 14 -6z m68
-16 c0 -5 -5 -10 -11 -10 -5 0 -7 5 -4 10 3 6 8 10 11 10 2 0 4 -4 4 -10z
m-5215 -20 c3 -6 -1 -7 -9 -4 -18 7 -21 14 -7 14 6 0 13 -4 16 -10z m5165 -75
c0 -3 -12 -18 -26 -33 -15 -15 -23 -21 -20 -14 4 6 2 12 -3 12 -20 0 -11 20
12 30 26 11 37 12 37 5z m190 -26 c41 -9 64 -18 50 -18 -14 -1 -42 4 -63 10
-33 9 -47 7 -92 -12 -30 -12 -52 -26 -49 -31 4 -5 0 -8 -7 -7 -21 3 -50 -12
-43 -22 3 -5 -2 -9 -10 -9 -9 0 -16 -3 -16 -8 0 -4 -9 -13 -20 -20 -16 -10
-13 0 14 40 19 29 45 65 59 80 28 31 40 30 177 -3z m-254 -28 c-4 -5 0 -12 6
-14 9 -4 8 -6 -2 -6 -8 -1 -21 -10 -28 -21 -7 -11 -22 -20 -35 -19 -21 0 -22
0 -1 9 11 4 28 20 37 34 16 23 36 39 23 17z m-2485 -29 c18 -16 30 -33 28 -38
-2 -5 -21 8 -42 29 -44 43 -33 51 14 9z m2449 4 c0 -3 -4 -8 -10 -11 -5 -3
-10 -1 -10 4 0 6 5 11 10 11 6 0 10 -2 10 -4z m677 -32 c-3 -3 -12 -4 -19 -1
-8 3 -5 6 6 6 11 1 17 -2 13 -5z m-732 -63 c12 -1 16 -4 9 -11 -6 -6 -23 -6
-47 1 -44 12 -49 19 -9 14 15 -2 36 -4 47 -4z m220 -64 c7 -7 4 -8 -10 -3 -11
4 -39 12 -62 19 -24 6 -43 14 -43 18 0 9 102 -21 115 -34z m148 -2 c-3 -9 -8
-14 -10 -11 -3 3 -2 9 2 15 9 16 15 13 8 -4z m-4292 -47 c17 -32 5 -30 -19 2
-16 21 -18 28 -7 24 9 -4 20 -15 26 -26z m3829 -12 c0 -2 -8 -10 -17 -17 -16
-13 -17 -12 -4 4 13 16 21 21 21 13z m-3502 -96 c12 -8 22 -18 22 -22 0 -6
-64 33 -79 48 -9 9 33 -11 57 -26z m3029 -152 c-3 -8 -6 -5 -6 6 -1 11 2 17 5
13 3 -3 4 -12 1 -19z m-7057 -657 c15 -28 13 -31 -20 -31 -22 0 -30 5 -30 18
0 36 33 44 50 13z m55 -191 c3 -5 -3 -10 -14 -10 -12 0 -21 5 -21 10 0 6 6 10
14 10 8 0 18 -4 21 -10z m59 -135 c20 -11 33 -12 40 -5 15 15 37 12 58 -7 33
-30 23 -43 -36 -43 -30 0 -58 5 -61 10 -3 6 -18 10 -33 10 -32 1 -67 24 -57
39 9 16 55 13 89 -4z m9960 -519 c23 -6 27 -9 15 -16 -8 -6 -15 -6 -17 0 -2 6
-12 10 -22 10 -10 0 -20 10 -23 23 -5 19 -4 20 6 6 7 -9 25 -19 41 -23z m-54
4 c0 -4 -7 -7 -15 -6 -23 3 -26 12 -5 13 11 1 20 -2 20 -7z m-9878 -114 c14
-15 18 -16 18 -5 0 8 -6 21 -12 28 -11 10 -9 12 7 9 13 -2 19 -11 19 -28 0
-14 6 -31 14 -39 7 -7 11 -16 8 -18 -7 -7 -46 7 -43 15 1 4 -8 17 -20 30 -13
12 -23 30 -22 40 0 13 2 14 6 2 3 -8 14 -23 25 -34z"/>
<path d="M5880 6030 c0 -5 5 -10 10 -10 6 0 10 5 10 10 0 6 -4 10 -10 10 -5 0
-10 -4 -10 -10z"/>
<path d="M6896 5981 c-3 -5 3 -11 14 -14 24 -6 60 2 60 14 0 12 -67 12 -74 0z"/>
<path d="M7040 5960 c0 -5 18 -10 40 -10 22 0 40 5 40 10 0 6 -18 10 -40 10
-22 0 -40 -4 -40 -10z"/>
<path d="M5548 5843 c7 -3 16 -2 19 1 4 3 -2 6 -13 5 -11 0 -14 -3 -6 -6z"/>
<path d="M5980 5839 c0 -5 5 -7 10 -4 6 3 10 8 10 11 0 2 -4 4 -10 4 -5 0 -10
-5 -10 -11z"/>
<path d="M6205 5820 c-3 -5 -1 -10 4 -10 6 0 11 5 11 10 0 6 -2 10 -4 10 -3 0
-8 -4 -11 -10z"/>
<path d="M5650 5796 c0 -9 40 -13 46 -5 3 5 -6 9 -20 9 -14 0 -26 -2 -26 -4z"/>
<path d="M5297 5779 c25 -10 65 -10 81 0 9 5 -8 8 -43 7 -33 0 -49 -3 -38 -7z"/>
<path d="M9731 5764 c0 -11 3 -14 6 -6 3 7 2 16 -1 19 -3 4 -6 -2 -5 -13z"/>
<path d="M2610 5754 c0 -8 5 -12 10 -9 6 3 10 10 10 16 0 5 -4 9 -10 9 -5 0
-10 -7 -10 -16z"/>
<path d="M5543 5760 c-29 -12 -29 -15 2 -16 15 -1 25 3 25 12 0 8 -1 14 -2 13
-2 0 -13 -4 -25 -9z"/>
<path d="M6075 5760 c-16 -7 -17 -9 -3 -9 9 -1 20 4 23 9 7 11 7 11 -20 0z"/>
<path d="M5605 5730 c41 -10 65 -12 65 -2 0 4 -21 8 -48 9 -40 1 -42 0 -17 -7z"/>
<path d="M5418 5723 c25 -5 28 -13 10 -31 -17 -17 4 -15 28 2 24 18 16 26 -27
30 -19 2 -24 1 -11 -1z"/>
<path d="M5924 5715 c-16 -12 -16 -14 -3 -15 9 0 22 7 29 15 16 19 0 19 -26 0z"/>
<path d="M5260 5710 c-8 -5 -11 -12 -7 -16 4 -4 15 0 24 9 18 18 8 23 -17 7z"/>
<path d="M5741 5644 c0 -11 3 -14 6 -6 3 7 2 16 -1 19 -3 4 -6 -2 -5 -13z"/>
<path d="M5580 5629 c0 -10 49 -21 60 -14 19 12 9 20 -25 21 -19 0 -35 -3 -35
-7z"/>
<path d="M5508 5623 c6 -2 18 -2 25 0 6 3 1 5 -13 5 -14 0 -19 -2 -12 -5z"/>
<path d="M5286 5601 c-16 -18 -15 -18 18 -7 19 6 32 14 30 18 -9 14 -30 9 -48
-11z"/>
<path d="M5743 5595 c-8 -8 -4 -17 12 -33 20 -19 24 -20 35 -7 7 8 17 15 22
15 18 0 81 30 75 37 -4 3 -12 1 -19 -4 -24 -19 -85 -25 -100 -10 -10 11 -16
11 -25 2z"/>
<path d="M5369 5582 c20 -16 22 -22 12 -40 -6 -11 -11 -23 -11 -26 0 -10 39
-6 45 4 3 6 -1 7 -9 4 -23 -9 -20 16 6 43 l21 23 -25 0 c-15 0 -35 3 -45 6
-13 4 -12 1 6 -14z"/>
<path d="M5714 5488 l-19 -23 23 19 c21 18 27 26 19 26 -2 0 -12 -10 -23 -22z"/>
<path d="M9595 5409 c-4 -6 -5 -12 -2 -15 2 -3 7 2 10 11 7 17 1 20 -8 4z"/>
<path d="M4807 5017 c-37 -34 -67 -68 -67 -75 0 -16 112 79 135 114 25 39 4
27 -68 -39z"/>
<path d="M5375 4999 c-11 -17 1 -21 15 -4 8 9 8 15 2 15 -6 0 -14 -5 -17 -11z"/>
<path d="M9023 4969 c-7 -7 -13 -21 -13 -30 0 -9 -7 -20 -17 -23 -15 -6 -15
-8 2 -20 10 -7 28 -11 40 -8 12 2 37 -3 54 -12 20 -11 31 -13 31 -5 0 6 -9 13
-20 16 -11 3 -20 8 -20 12 0 4 -9 16 -19 28 -10 11 -21 28 -22 37 -3 14 -6 15
-16 5z"/>
<path d="M3272 4913 c3 -19 48 -29 76 -18 14 6 11 10 -13 21 -43 19 -67 18
-63 -3z"/>
<path d="M3357 4862 c-16 -8 -25 -18 -20 -22 8 -8 108 -15 166 -11 42 2 32 21
-12 21 -21 0 -54 6 -72 13 -29 12 -38 12 -62 -1z"/>
<path d="M3907 4874 c-12 -12 4 -24 34 -24 16 0 29 5 29 10 0 6 -6 10 -14 10
-8 0 -21 2 -28 5 -8 3 -17 3 -21 -1z"/>
<path d="M4180 4840 c0 -5 11 -10 25 -10 14 0 25 5 25 10 0 6 -11 10 -25 10
-14 0 -25 -4 -25 -10z"/>
<path d="M4405 4790 c3 -5 16 -10 28 -10 18 0 19 2 7 10 -20 13 -43 13 -35 0z"/>
<path d="M9390 4530 c-13 -8 -13 -10 2 -10 9 0 20 5 23 10 8 13 -5 13 -25 0z"/>
<path d="M8967 4499 c7 -7 15 -10 18 -7 3 3 -2 9 -12 12 -14 6 -15 5 -6 -5z"/>
<path d="M9420 4390 c0 -5 -19 -15 -42 -22 -24 -7 -55 -24 -70 -39 -16 -15
-40 -30 -55 -34 -34 -7 -53 -22 -71 -54 -13 -21 -12 -23 3 -17 9 3 28 9 42 12
13 4 29 17 33 30 19 50 76 69 150 52 8 -1 14 2 13 8 -1 7 2 26 7 43 5 19 5 31
-1 31 -5 0 -9 -4 -9 -10z"/>
<path d="M8850 4302 c0 -25 35 -48 45 -31 4 6 5 11 4 12 -2 1 -14 11 -26 21
-23 19 -23 19 -23 -2z"/>
<path d="M9000 4185 c0 -8 7 -15 15 -15 8 0 15 4 15 9 0 5 -7 11 -15 15 -9 3
-15 0 -15 -9z"/>
<path d="M9117 4162 c-10 -10 -17 -22 -17 -26 0 -9 49 27 50 37 0 13 -17 7
-33 -11z"/>
<path d="M8854 4156 c-6 -7 -15 -22 -18 -34 -6 -18 -3 -22 12 -22 16 0 20 7
20 35 0 19 -1 35 -1 35 -1 -1 -7 -7 -13 -14z"/>
<path d="M8885 4090 c-3 -5 1 -10 10 -10 9 0 13 5 10 10 -3 6 -8 10 -10 10 -2
0 -7 -4 -10 -10z"/>
<path d="M8767 4032 c-19 -21 -6 -52 23 -52 11 0 20 -6 20 -12 0 -9 3 -8 9 2
12 18 5 31 -13 24 -19 -7 -31 15 -17 29 6 6 11 15 11 19 0 14 -16 9 -33 -10z"/>
<path d="M1250 4030 c0 -5 5 -10 11 -10 5 0 7 5 4 10 -3 6 -8 10 -11 10 -2 0
-4 -4 -4 -10z"/>
<path d="M820 4001 c0 -5 9 -11 20 -14 13 -3 20 0 20 9 0 8 -9 14 -20 14 -11
0 -20 -4 -20 -9z"/>
<path d="M9130 3980 c0 -5 4 -10 9 -10 6 0 13 5 16 10 3 6 -1 10 -9 10 -9 0
-16 -4 -16 -10z"/>
<path d="M1300 3918 c0 -4 12 -8 27 -8 14 0 23 3 19 7 -10 10 -46 11 -46 1z"/>
<path d="M8987 3915 c-10 -7 -14 -16 -9 -19 5 -3 15 1 22 9 17 21 9 27 -13 10z"/>
<path d="M8681 3884 c0 -11 3 -14 6 -6 3 7 2 16 -1 19 -3 4 -6 -2 -5 -13z"/>
<path d="M856 3873 c-4 -5 -13 -8 -19 -8 -23 0 -12 -30 12 -33 34 -5 71 6 71
22 0 21 -48 35 -64 19z"/>
<path d="M9015 3870 c3 -5 8 -10 11 -10 2 0 4 5 4 10 0 6 -5 10 -11 10 -5 0
-7 -4 -4 -10z"/>
<path d="M8781 3844 c0 -11 3 -14 6 -6 3 7 2 16 -1 19 -3 4 -6 -2 -5 -13z"/>
<path d="M8790 3810 c0 -5 4 -10 9 -10 6 0 13 5 16 10 3 6 -1 10 -9 10 -9 0
-16 -4 -16 -10z"/>
<path d="M8612 3660 c-11 -17 -10 -20 8 -20 21 0 25 7 12 27 -6 9 -11 7 -20
-7z"/>
<path d="M8946 3611 c-22 -10 -36 -20 -30 -23 5 -4 27 5 49 18 46 28 37 30
-19 5z"/>
<path d="M4630 3595 c-14 -8 -20 -14 -14 -15 5 0 19 7 30 15 24 18 16 19 -16
0z"/>
<path d="M1151 3553 c-14 -27 -6 -33 43 -33 38 1 86 23 74 35 -3 3 -28 8 -56
12 -43 5 -51 3 -61 -14z"/>
<path d="M8755 3560 c-3 -5 -1 -10 4 -10 6 0 11 5 11 10 0 6 -2 10 -4 10 -3 0
-8 -4 -11 -10z"/>
<path d="M4485 3530 c-3 -5 3 -10 15 -10 12 0 18 5 15 10 -3 6 -10 10 -15 10
-5 0 -12 -4 -15 -10z"/>
<path d="M4268 3523 c7 -3 16 -2 19 1 4 3 -2 6 -13 5 -11 0 -14 -3 -6 -6z"/>
<path d="M8775 3510 c-8 -13 5 -13 25 0 13 8 13 10 -2 10 -9 0 -20 -4 -23 -10z"/>
<path d="M4168 3503 c7 -3 16 -2 19 1 4 3 -2 6 -13 5 -11 0 -14 -3 -6 -6z"/>
<path d="M1356 3470 c8 -47 15 -53 57 -45 35 7 35 7 16 26 -10 10 -28 19 -39
19 -10 0 -24 8 -30 18 -9 13 -10 10 -4 -18z"/>
<path d="M1470 3481 c0 -20 25 -31 73 -31 15 0 27 5 27 13 0 23 -23 37 -62 37
-31 0 -38 -4 -38 -19z"/>
<path d="M3970 3420 c-14 -4 -65 -20 -114 -35 -48 -14 -86 -28 -84 -30 6 -6
164 38 208 58 37 16 31 21 -10 7z"/>
<path d="M1655 3410 c-14 -6 0 -9 44 -9 35 -1 62 1 60 3 -10 9 -86 13 -104 6z"/>
<path d="M1476 3374 c-11 -30 -6 -34 43 -34 58 0 72 12 33 30 -44 20 -69 21
-76 4z"/>
<path d="M3978 3383 c-10 -2 -18 -9 -18 -14 0 -6 8 -5 20 1 11 6 20 13 20 15
0 3 -1 4 -2 4 -2 -1 -11 -3 -20 -6z"/>
<path d="M8357 3341 c-20 -40 -19 -44 6 -26 11 8 17 23 15 37 -3 21 -4 21 -21
-11z"/>
<path d="M8887 3344 c-10 -13 -23 -24 -30 -24 -7 -1 -25 -7 -42 -14 l-30 -12
46 -1 c43 -1 47 1 63 34 20 43 17 50 -7 17z"/>
<path d="M1836 3332 c-8 -13 25 -21 49 -11 16 6 17 8 3 8 -9 1 -23 4 -31 7 -8
3 -18 1 -21 -4z"/>
<path d="M1966 3320 c-13 -4 3 -10 50 -18 44 -7 72 -8 78 -2 7 7 -1 10 -20 10
-16 0 -43 4 -59 9 -17 4 -39 5 -49 1z"/>
<path d="M1677 3303 c-4 -3 5 -15 19 -26 22 -17 35 -19 96 -14 93 8 108 23 32
31 -33 4 -78 8 -100 11 -23 2 -44 2 -47 -2z"/>
<path d="M3458 3303 c7 -3 16 -2 19 1 4 3 -2 6 -13 5 -11 0 -14 -3 -6 -6z"/>
<path d="M8696 3295 c-3 -8 -1 -15 4 -15 6 0 10 7 10 15 0 8 -2 15 -4 15 -2 0
-6 -7 -10 -15z"/>
<path d="M3355 3290 c-13 -6 -5 -7 25 -3 25 3 47 7 49 9 9 8 -55 2 -74 -6z"/>
<path d="M3098 3253 c7 -3 16 -2 19 1 4 3 -2 6 -13 5 -11 0 -14 -3 -6 -6z"/>
<path d="M2045 3240 c3 -5 14 -10 23 -10 15 0 15 2 2 10 -20 13 -33 13 -25 0z"/>
<path d="M2170 3240 c-8 -5 -30 -10 -49 -10 -58 0 -30 -7 56 -14 76 -6 83 -5
93 14 10 19 8 20 -37 20 -26 0 -55 -5 -63 -10z m90 -8 c0 -4 -16 -6 -35 -4
-19 2 -35 6 -35 8 0 2 16 4 35 4 19 0 35 -4 35 -8z"/>
<path d="M2655 3240 l-30 -8 30 0 c17 0 39 3 50 8 l20 9 -20 -1 c-11 0 -33 -4
-50 -8z"/>
<path d="M8970 3229 c0 -19 -28 -38 -62 -42 -50 -6 -166 -77 -126 -77 9 0 9
-3 -2 -10 -13 -8 -13 -10 1 -10 9 0 33 11 54 25 20 15 40 24 43 20 3 -3 -1 -5
-9 -5 -12 0 -12 -2 1 -10 15 -9 10 -12 -70 -39 -148 -49 -182 -61 -158 -56 37
7 58 -3 58 -28 0 -19 3 -18 33 10 17 17 58 45 90 63 53 29 62 32 114 25 52 -6
55 -5 47 12 -5 10 -7 44 -6 76 1 31 0 57 -3 57 -3 0 -5 -5 -5 -11z"/>
<path d="M2563 3223 c9 -2 23 -2 30 0 6 3 -1 5 -18 5 -16 0 -22 -2 -12 -5z"/>
<path d="M1966 3208 c3 -5 -2 -8 -10 -8 -9 0 -16 -7 -16 -15 0 -11 11 -15 43
-15 59 0 87 10 87 29 0 13 -11 16 -54 16 -30 0 -52 -3 -50 -7z"/>
<path d="M2913 3213 c9 -2 25 -2 35 0 9 3 1 5 -18 5 -19 0 -27 -2 -17 -5z"/>
<path d="M2335 3189 c4 -5 22 -9 42 -9 45 0 40 5 -10 13 -22 3 -35 2 -32 -4z"/>
<path d="M2588 3175 c-3 -3 -14 -7 -24 -9 -11 -2 -39 -12 -64 -21 -25 -9 -53
-19 -64 -22 -10 -3 -35 -14 -55 -24 l-36 -18 53 -1 c39 0 60 6 83 22 16 12 66
30 112 39 51 11 70 18 49 18 -19 1 -31 5 -27 11 6 10 -17 14 -27 5z m-91 -51
c-3 -3 -12 -4 -19 -1 -8 3 -5 6 6 6 11 1 17 -2 13 -5z"/>
<path d="M8633 3163 c-7 -2 -13 -12 -13 -22 0 -9 -5 -22 -12 -29 -8 -8 -9 -12
-1 -12 14 0 39 24 53 51 11 20 1 24 -27 12z"/>
<path d="M2688 3153 c7 -3 16 -2 19 1 4 3 -2 6 -13 5 -11 0 -14 -3 -6 -6z"/>
<path d="M8455 3129 c-17 -12 -21 -18 -10 -14 11 4 28 10 38 12 9 3 17 9 17
14 0 14 -13 11 -45 -12z"/>
<path d="M3210 3119 c-47 -13 -56 -18 -35 -18 40 -1 105 17 105 29 0 6 -1 9
-2 9 -2 -1 -32 -10 -68 -20z"/>
<path d="M2369 3038 c-17 -4 -9 -6 26 -7 28 0 56 3 64 8 16 11 -51 10 -90 -1z"/>
<path d="M2730 3019 c0 -5 5 -7 10 -4 6 3 10 8 10 11 0 2 -4 4 -10 4 -5 0 -10
-5 -10 -11z"/>
<path d="M8850 3010 c0 -5 5 -10 11 -10 5 0 7 5 4 10 -3 6 -8 10 -11 10 -2 0
-4 -4 -4 -10z"/>
<path d="M2670 3000 c-13 -8 -13 -10 2 -10 9 0 20 5 23 10 8 13 -5 13 -25 0z"/>
<path d="M2968 3003 c7 -3 16 -2 19 1 4 3 -2 6 -13 5 -11 0 -14 -3 -6 -6z"/>
<path d="M8490 2998 c0 -6 -8 -21 -17 -32 -10 -12 -2 -7 17 9 19 17 37 31 39
33 2 1 -5 2 -17 2 -12 0 -22 -5 -22 -12z"/>
<path d="M3311 2979 c-31 -25 -23 -33 9 -9 14 10 23 21 20 23 -3 3 -16 -3 -29
-14z"/>
<path d="M8421 2989 c-13 -5 -21 -12 -17 -16 3 -3 16 -1 29 5 12 6 29 13 37
15 10 4 8 5 -5 6 -11 0 -31 -5 -44 -10z"/>
<path d="M8605 2930 c-27 -18 -28 -20 -9 -20 12 0 32 9 45 20 32 26 4 27 -36
0z"/>
<path d="M8676 2933 c-6 -14 -5 -15 5 -6 7 7 10 15 7 18 -3 3 -9 -2 -12 -12z"/>
<path d="M2140 2920 c-9 -6 -10 -10 -3 -10 6 0 15 5 18 10 8 12 4 12 -15 0z"/>
<path d="M8340 2880 c-23 -7 -23 -8 -3 -9 12 -1 25 4 28 9 3 6 5 10 3 9 -2 -1
-14 -5 -28 -9z"/>
<path d="M2788 2813 c7 -3 16 -2 19 1 4 3 -2 6 -13 5 -11 0 -14 -3 -6 -6z"/>
<path d="M8615 2811 c6 -11 4 -13 -9 -8 -13 5 -17 3 -13 -7 5 -13 -21 -46 -37
-46 -3 0 -29 -18 -57 -40 -28 -22 -55 -40 -60 -40 -5 0 -9 -6 -9 -14 0 -8 -6
-18 -12 -22 -16 -10 -98 -13 -98 -4 0 8 -77 -4 -87 -14 -4 -3 11 -6 33 -6 21
0 69 -3 106 -5 65 -5 68 -4 104 31 36 33 42 35 99 33 l60 -3 -3 70 c-2 38 -9
74 -14 79 -8 7 -8 6 -3 -4z m-145 -156 c-7 -9 -15 -13 -18 -10 -3 2 1 11 8 20
7 9 15 13 18 10 3 -2 -1 -11 -8 -20z"/>
<path d="M8252 2778 c-29 -29 -13 -38 66 -38 59 1 73 3 59 11 -11 6 -41 8 -73
4 -54 -6 -65 0 -42 23 7 7 10 12 7 12 -3 0 -10 -5 -17 -12z"/>
<path d="M8510 2749 c0 -5 5 -7 10 -4 6 3 10 8 10 11 0 2 -4 4 -10 4 -5 0 -10
-5 -10 -11z"/>
<path d="M8478 2743 c7 -3 16 -2 19 1 4 3 -2 6 -13 5 -11 0 -14 -3 -6 -6z"/>
<path d="M8045 2700 c-4 -6 -11 -8 -16 -5 -5 4 -9 1 -9 -4 0 -17 27 -13 34 4
6 17 0 20 -9 5z"/>
<path d="M8321 2674 c0 -11 3 -14 6 -6 3 7 2 16 -1 19 -3 4 -6 -2 -5 -13z"/>
<path d="M8188 2603 c7 -3 16 -2 19 1 4 3 -2 6 -13 5 -11 0 -14 -3 -6 -6z"/>
<path d="M7710 4858 c-16 -6 -20 -12 -12 -15 18 -7 80 6 87 17 8 13 -43 12
-75 -2z"/>
<path d="M7960 4843 c-14 -2 -41 -9 -60 -15 -30 -10 -32 -12 -15 -19 48 -19
129 0 118 27 -3 8 -8 13 -12 13 -3 -1 -17 -4 -31 -6z"/>
<path d="M7615 4801 c-3 -5 -19 -12 -35 -16 -45 -10 -38 -29 8 -21 20 3 43 6
50 6 6 0 12 9 12 20 0 20 -24 28 -35 11z"/>
<path d="M7785 4777 c-72 -24 -71 -23 -55 -42 17 -20 42 -19 103 7 65 27 62
24 44 43 -18 18 -16 18 -92 -8z"/>
<path d="M7613 4686 c-26 -24 -26 -25 -7 -26 41 0 114 13 114 21 0 7 -9 11
-62 25 -9 3 -29 -7 -45 -20z"/>
<path d="M7485 4610 c-38 -10 -74 -19 -79 -19 -5 -1 -3 -7 3 -14 6 -8 8 -17 4
-21 -4 -4 6 0 22 8 17 9 38 16 48 16 27 0 87 27 87 39 0 14 -1 14 -85 -9z"/>
<path d="M5147 4709 c7 -7 15 -10 18 -7 3 3 -2 9 -12 12 -14 6 -15 5 -6 -5z"/>
<path d="M6812 4180 c-48 -11 -53 -22 -7 -17 21 2 41 9 43 16 2 6 2 11 0 10
-1 -1 -18 -5 -36 -9z"/>
</g>
</svg>
