<?xml version="1.0" ?><!DOCTYPE svg  PUBLIC '-//W3C//DTD SVG 1.1//EN'  'http://www.w3.org/Graphics/SVG/1.1/DTD/svg11.dtd'><svg height="42px" style="fill-rule:evenodd;clip-rule:evenodd;stroke-linejoin:round;stroke-miterlimit:2;" version="1.1" width="42px" xml:space="preserve" xmlns="http://www.w3.org/2000/svg" xmlns:serif="http://www.serif.com/" xmlns:xlink="http://www.w3.org/1999/xlink"><path d="M27.012,32.07l2.197,-0.922l-2.197,-0.922c-3.603,-1.513 -6.137,-5.076 -6.137,-9.226c-0,-4.15 2.534,-7.713 6.137,-9.226l2.197,-0.922l-2.197,-0.922c-1.427,-0.599 -2.994,-0.93 -4.637,-0.93c-6.623,0 -12,5.377 -12,12c-0,6.623 5.377,12 12,12c1.643,0 3.21,-0.331 4.637,-0.93Zm-2.971,-1.208c-0.542,0.091 -1.099,0.138 -1.666,0.138c-5.519,0 -10,-4.481 -10,-10c-0,-5.519 4.481,-10 10,-10c0.567,-0 1.124,0.047 1.666,0.138c-3.122,2.168 -5.166,5.778 -5.166,9.862c-0,4.084 2.044,7.694 5.164,9.861l0.002,0.001Z" style="fill:#100;"/><path d="M35.902,19.191l0.449,1.382l1.453,-0l-1.175,0.854l0.449,1.382l-1.176,-0.854l-1.175,0.854l0.449,-1.382l-1.176,-0.854l1.453,-0l0.449,-1.382Z"/><path d="M10.098,6.5l0.449,1.382l1.453,-0l-1.176,0.854l0.449,1.382l-1.175,-0.854l-1.176,0.854l0.449,-1.382l-1.175,-0.854l1.453,-0l0.449,-1.382Z"/><path d="M12,32l0.449,1.382l1.453,-0l-1.175,0.854l0.449,1.382l-1.176,-0.854l-1.176,0.854l0.449,-1.382l-1.175,-0.854l1.453,-0l0.449,-1.382Z"/></svg>